<svg xmlns="http://www.w3.org/2000/svg" viewBox="0 0 530 530">
<path d="M 142.00 355.50 L 141.00 355.50 L 140.00 355.50 L 139.00 355.50 L 138.00 355.50 L 137.00 355.50 L 136.00 355.50 L 135.00 355.50 L 134.00 355.50 L 133.00 355.50 L 132.00 355.50 L 131.00 355.50 L 130.00 355.50 L 129.50 355.00 L 129.00 354.50 L 128.00 354.50 L 127.50 354.00 L 127.00 353.50 L 126.00 353.50 L 125.50 353.00 L 125.00 352.50 L 124.00 352.50 L 123.50 352.00 L 123.00 351.50 L 122.50 351.00 L 122.00 350.50 L 121.00 350.50 L 120.50 350.00 L 120.00 349.50 L 119.50 349.00 L 119.00 348.50 L 118.50 348.00 L 118.00 347.50 L 117.00 347.50 L 116.50 347.00 L 116.00 346.50 L 115.50 346.00 L 115.00 345.50 L 114.50 345.00 L 114.00 344.50 L 113.50 344.00 L 113.00 343.50 L 112.50 343.00 L 112.00 342.50 L 111.50 342.00 L 111.00 341.50 L 110.50 341.00 L 110.00 340.50 L 109.50 340.00 L 109.00 339.50 L 108.50 339.00 L 108.00 338.50 L 107.50 338.00 L 107.00 337.50 L 106.50 337.00 L 106.00 336.50 L 105.50 336.00 L 105.00 335.50 L 104.50 335.00 L 104.00 334.50 L 103.50 334.00 L 103.00 333.50 L 102.50 333.00 L 102.00 332.50 L 101.50 332.00 L 101.00 331.50 L 100.50 331.00 L 100.50 330.00 L 100.00 329.50 L 99.50 329.00 L 99.00 328.50 L 98.50 328.00 L 98.00 327.50 L 97.50 327.00 L 97.00 326.50 L 96.50 326.00 L 96.50 325.00 L 96.00 324.50 L 95.50 324.00 L 95.00 323.50 L 94.50 323.00 L 94.00 322.50 L 93.50 322.00 L 93.00 321.50 L 92.50 321.00 L 92.50 320.00 L 92.00 319.50 L 91.50 319.00 L 91.00 318.50 L 90.50 318.00 L 90.00 317.50 L 89.50 317.00 L 89.50 316.00 L 89.00 315.50 L 88.50 315.00 L 88.00 314.50 L 87.50 314.00 L 87.50 313.00 L 87.00 312.50 L 86.50 312.00 L 86.00 311.50 L 85.50 311.00 L 85.50 310.00 L 85.00 309.50 L 84.50 309.00 L 84.50 308.00 L 84.00 307.50 L 83.50 307.00 L 83.00 306.50 L 82.50 306.00 L 82.50 305.00 L 82.00 304.50 L 81.50 304.00 L 81.00 303.50 L 80.50 303.00 L 80.50 302.00 L 80.00 301.50 L 79.50 301.00 L 79.50 300.00 L 79.00 299.50 L 78.50 299.00 L 78.50 298.00 L 78.00 297.50 L 77.50 297.00 L 77.50 296.00 L 77.00 295.50 L 76.50 295.00 L 76.50 294.00 L 76.00 293.50 L 75.50 293.00 L 75.50 292.00 L 75.00 291.50 L 74.50 291.00 L 74.50 290.00 L 74.00 289.50 L 73.50 289.00 L 73.50 288.00 L 73.50 287.00 L 73.00 286.50 L 72.50 286.00 L 72.50 285.00 L 72.00 284.50 L 71.50 284.00 L 71.50 283.00 L 71.50 282.00 L 71.00 281.50 L 70.50 281.00 L 70.50 280.00 L 70.00 279.50 L 69.50 279.00 L 69.50 278.00 L 69.50 277.00 L 69.00 276.50 L 68.50 276.00 L 68.50 275.00 L 68.50 274.00 L 68.00 273.50 L 67.50 273.00 L 67.50 272.00 L 67.50 271.00 L 67.00 270.50 L 66.50 270.00 L 66.50 269.00 L 66.50 268.00 L 66.50 267.00 L 66.00 266.50 L 65.50 266.00 L 65.50 265.00 L 65.50 264.00 L 65.00 263.50 L 64.50 263.00 L 64.50 262.00 L 64.50 261.00 L 64.50 260.00 L 64.00 259.50 L 63.50 259.00 L 63.50 258.00 L 63.50 257.00 L 63.50 256.00 L 63.00 255.50 L 62.50 255.00 L 62.50 254.00 L 62.50 253.00 L 62.50 252.00 L 62.00 251.50 L 61.50 251.00 L 61.50 250.00 L 61.50 249.00 L 61.50 248.00 L 61.50 247.00 L 61.00 246.50 L 60.50 246.00 L 60.50 245.00 L 60.50 244.00 L 60.50 243.00 L 60.50 242.00 L 60.50 241.00 L 60.00 240.50 L 59.50 240.00 L 59.50 239.00 L 59.50 238.00 L 59.50 237.00 L 59.50 236.00 L 59.50 235.00 L 59.50 234.00 L 59.50 233.00 L 59.50 232.00 L 59.00 231.50 L 58.50 231.00 L 58.50 230.00 L 58.50 229.00 L 58.50 228.00 L 58.50 227.00 L 58.50 226.00 L 58.50 225.00 L 58.50 224.00 L 58.50 223.00 L 58.50 222.00 L 58.50 221.00 L 58.50 220.00 L 58.50 219.00 L 58.50 218.00 L 58.50 217.00 L 58.50 216.00 L 58.50 215.00 L 58.50 214.00 L 58.50 213.00 L 58.50 212.00 L 58.50 211.00 L 58.50 210.00 L 58.50 209.00 L 58.50 208.00 L 58.50 207.00 L 58.50 206.00 L 58.50 205.00 L 58.50 204.00 L 58.50 203.00 L 58.50 202.00 L 59.00 201.50 L 59.50 201.00 L 59.50 200.00 L 59.50 199.00 L 59.50 198.00 L 59.50 197.00 L 59.50 196.00 L 59.50 195.00 L 59.50 194.00 L 59.50 193.00 L 59.50 192.00 L 60.00 191.50 L 60.50 191.00 L 60.50 190.00 L 60.50 189.00 L 60.50 188.00 L 60.50 187.00 L 60.50 186.00 L 61.00 185.50 L 61.50 185.00 L 61.50 184.00 L 61.50 183.00 L 61.50 182.00 L 61.50 181.00 L 62.00 180.50 L 62.50 180.00 L 62.50 179.00 L 62.50 178.00 L 62.50 177.00 L 62.50 176.00 L 63.00 175.50 L 63.50 175.00 L 63.50 174.00 L 63.50 173.00 L 64.00 172.50 L 64.50 172.00 L 64.50 171.00 L 64.50 170.00 L 64.50 169.00 L 65.00 168.50 L 65.50 168.00 L 65.50 167.00 L 65.50 166.00 L 66.00 165.50 L 66.50 165.00 L 66.50 164.00 L 66.50 163.00 L 67.00 162.50 L 67.50 162.00 L 67.50 161.00 L 67.50 160.00 L 68.00 159.50 L 68.50 159.00 L 68.50 158.00 L 68.50 157.00 L 69.00 156.50 L 69.50 156.00 L 69.50 155.00 L 69.50 154.00 L 70.00 153.50 L 70.50 153.00 L 70.50 152.00 L 70.50 151.00 L 71.00 150.50 L 71.50 150.00 L 71.50 149.00 L 72.00 148.50 L 72.50 148.00 L 72.50 147.00 L 72.50 146.00 L 73.00 145.50 L 73.50 145.00 L 73.50 144.00 L 73.50 143.00 L 74.00 142.50 L 74.50 142.00 L 74.50 141.00 L 75.00 140.50 L 75.50 140.00 L 75.50 139.00 L 76.00 138.50 L 76.50 138.00 L 76.50 137.00 L 77.00 136.50 L 77.50 136.00 L 77.50 135.00 L 78.00 134.50 L 78.50 134.00 L 78.50 133.00 L 79.00 132.50 L 79.50 132.00 L 79.50 131.00 L 80.00 130.50 L 80.50 130.00 L 81.00 129.50 L 81.50 129.00 L 81.50 128.00 L 82.00 127.50 L 82.50 127.00 L 82.50 126.00 L 83.00 125.50 L 83.50 125.00 L 84.00 124.50 L 84.50 124.00 L 84.50 123.00 L 85.00 122.50 L 85.50 122.00 L 85.50 121.00 L 86.00 120.50 L 86.50 120.00 L 87.00 119.50 L 87.50 119.00 L 87.50 118.00 L 88.00 117.50 L 88.50 117.00 L 89.00 116.50 L 89.50 116.00 L 89.50 115.00 L 90.00 114.50 L 90.50 114.00 L 91.00 113.50 L 91.50 113.00 L 91.50 112.00 L 92.00 111.50 L 92.50 111.00 L 93.00 110.50 L 93.50 110.00 L 94.00 109.50 L 94.50 109.00 L 94.50 108.00 L 95.00 107.50 L 95.50 107.00 L 96.00 106.50 L 96.50 106.00 L 97.00 105.50 L 97.50 105.00 L 98.00 104.50 L 98.50 104.00 L 98.50 103.00 L 99.00 102.50 L 99.50 102.00 L 100.00 101.50 L 100.50 101.00 L 101.00 100.50 L 101.50 100.00 L 102.00 99.50 L 102.50 99.00 L 103.00 98.50 L 103.50 98.00 L 103.50 97.00 L 104.00 96.50 L 104.50 96.00 L 105.00 95.50 L 105.50 95.00 L 106.00 94.50 L 106.50 94.00 L 107.00 93.50 L 107.50 93.00 L 108.00 92.50 L 108.50 92.00 L 109.00 91.50 L 109.50 91.00 L 110.00 90.50 L 110.50 90.00 L 111.00 89.50 L 111.50 89.00 L 112.00 88.50 L 112.50 88.00 L 113.00 87.50 L 113.50 87.00 L 114.00 86.50 L 114.50 86.00 L 115.00 85.50 L 115.50 85.00 L 116.00 84.50 L 116.50 84.00 L 117.00 83.50 L 117.50 83.00 L 118.00 82.50 L 118.50 82.00 L 119.00 81.50 L 119.50 81.00 L 120.00 80.50 L 120.50 80.00 L 121.00 79.50 L 121.50 79.00 L 122.00 78.50 L 122.50 78.00 L 123.00 77.50 L 124.00 77.50 L 124.50 77.00 L 125.00 76.50 L 125.50 76.00 L 126.00 75.50 L 126.50 75.00 L 127.00 74.50 L 127.50 74.00 L 128.00 73.50 L 128.50 73.00 L 129.00 72.50 L 130.00 72.50 L 130.50 72.00 L 131.00 71.50 L 131.50 71.00 L 132.00 70.50 L 132.50 70.00 L 133.00 69.50 L 134.00 69.50 L 134.50 69.00 L 135.00 68.50 L 135.50 68.00 L 136.00 67.50 L 136.50 67.00 L 137.00 66.50 L 138.00 66.50 L 138.50 66.00 L 139.00 65.50 L 140.00 65.50 L 140.50 65.00 L 141.00 64.50 L 141.50 64.00 L 142.00 63.50 L 143.00 63.50 L 143.50 63.00 L 144.00 62.50 L 144.50 62.00 L 145.00 61.50 L 146.00 61.50 L 146.50 61.00 L 147.00 60.50 L 148.00 60.50 L 148.50 60.00 L 149.00 59.50 L 149.50 59.00 L 150.00 58.50 L 151.00 58.50 L 151.50 58.00 L 152.00 57.50 L 153.00 57.50 L 153.50 57.00 L 154.00 56.50 L 154.50 56.00 L 155.00 55.50 L 156.00 55.50 L 156.50 55.00 L 157.00 54.50 L 158.00 54.50 L 158.50 54.00 L 159.00 53.50 L 160.00 53.50 L 160.50 53.00 L 161.00 52.50 L 162.00 52.50 L 162.50 52.00 L 163.00 51.50 L 164.00 51.50 L 164.50 51.00 L 165.00 50.50 L 166.00 50.50 L 166.50 50.00 L 167.00 49.50 L 168.00 49.50 L 168.50 49.00 L 169.00 48.50 L 170.00 48.50 L 171.00 48.50 L 171.50 48.00 L 172.00 47.50 L 173.00 47.50 L 173.50 47.00 L 174.00 46.50 L 175.00 46.50 L 175.50 46.00 L 176.00 45.50 L 177.00 45.50 L 178.00 45.50 L 178.50 45.00 L 179.00 44.50 L 180.00 44.50 L 181.00 44.50 L 181.50 44.00 L 182.00 43.50 L 183.00 43.50 L 184.00 43.50 L 184.50 43.00 L 185.00 42.50 L 186.00 42.50 L 187.00 42.50 L 187.50 42.00 L 188.00 41.50 L 189.00 41.50 L 190.00 41.50 L 190.50 41.00 L 191.00 40.50 L 192.00 40.50 L 193.00 40.50 L 193.50 40.00 L 194.00 39.50 L 195.00 39.50 L 196.00 39.50 L 196.50 39.00 L 197.00 38.50 L 198.00 38.50 L 199.00 38.50 L 200.00 38.50 L 200.50 38.00 L 201.00 37.50 L 202.00 37.50 L 203.00 37.50 L 204.00 37.50 L 204.50 37.00 L 205.00 36.50 L 206.00 36.50 L 207.00 36.50 L 208.00 36.50 L 209.00 36.50 L 209.50 36.00 L 210.00 35.50 L 211.00 35.50 L 212.00 35.50 L 213.00 35.50 L 213.50 35.00 L 214.00 34.50 L 215.00 34.50 L 216.00 34.50 L 217.00 34.50 L 218.00 34.50 L 219.00 34.50 L 219.50 34.00 L 220.00 33.50 L 221.00 33.50 L 222.00 33.50 L 223.00 33.50 L 224.00 33.50 L 225.00 33.50 L 226.00 33.50 L 227.00 33.50 L 228.00 33.50 L 228.50 33.00 L 229.00 32.50 L 230.00 32.50 L 231.00 32.50 L 232.00 32.50 L 233.00 32.50 L 234.00 32.50 L 235.00 32.50 L 236.00 32.50 L 237.00 32.50 L 238.00 32.50 L 239.00 32.50 L 240.00 32.50 L 241.00 32.50 L 242.00 32.50 L 243.00 32.50 L 244.00 32.50 L 245.00 32.50 L 246.00 32.50 L 247.00 32.50 L 248.00 32.50 L 249.00 32.50 L 250.00 32.50 L 251.00 32.50 L 252.00 32.50 L 253.00 32.50 L 254.00 32.50 L 255.00 32.50 L 256.00 32.50 L 257.00 32.50 L 258.00 32.50 L 259.00 32.50 L 260.00 32.50 L 261.00 32.50 L 262.00 32.50 L 263.00 32.50 L 264.00 32.50 L 265.00 32.50 L 266.00 32.50 L 266.50 33.00 L 267.00 33.50 L 268.00 33.50 L 269.00 33.50 L 270.00 33.50 L 271.00 33.50 L 272.00 33.50 L 273.00 33.50 L 274.00 33.50 L 274.50 34.00 L 275.00 34.50 L 276.00 34.50 L 277.00 34.50 L 278.00 34.50 L 279.00 34.50 L 279.50 35.00 L 280.00 35.50 L 281.00 35.50 L 282.00 35.50 L 283.00 35.50 L 284.00 35.50 L 285.00 35.50 L 285.50 36.00 L 286.00 36.50 L 287.00 36.50 L 288.00 36.50 L 289.00 36.50 L 289.50 37.00 L 290.00 37.50 L 291.00 37.50 L 292.00 37.50 L 293.00 37.50 L 294.00 37.50 L 294.50 38.00 L 295.00 38.50 L 296.00 38.50 L 297.00 38.50 L 298.00 38.50 L 298.50 39.00 L 299.00 39.50 L 300.00 39.50 L 301.00 39.50 L 301.50 40.00 L 302.00 40.50 L 303.00 40.50 L 304.00 40.50 L 305.00 40.50 L 305.50 41.00 L 306.00 41.50 L 307.00 41.50 L 308.00 41.50 L 308.50 42.00 L 309.00 42.50 L 310.00 42.50 L 311.00 42.50 L 311.50 43.00 L 312.00 43.50 L 313.00 43.50 L 313.50 44.00 L 314.00 44.50 L 315.00 44.50 L 316.00 44.50 L 316.50 45.00 L 317.00 45.50 L 318.00 45.50 L 318.50 46.00 L 319.00 46.50 L 320.00 46.50 L 320.50 47.00 L 321.00 47.50 L 322.00 47.50 L 323.00 47.50 L 323.50 48.00 L 324.00 48.50 L 325.00 48.50 L 325.50 49.00 L 326.00 49.50 L 327.00 49.50 L 327.50 50.00 L 328.00 50.50 L 329.00 50.50 L 329.50 51.00 L 330.00 51.50 L 331.00 51.50 L 331.50 52.00 L 332.00 52.50 L 333.00 52.50 L 333.50 53.00 L 334.00 53.50 L 335.00 53.50 L 335.50 54.00 L 336.00 54.50 L 337.00 54.50 L 337.50 55.00 L 338.00 55.50 L 338.50 56.00 L 339.00 56.50 L 340.00 56.50 L 340.50 57.00 L 341.00 57.50 L 342.00 57.50 L 342.50 58.00 L 343.00 58.50 L 344.00 58.50 L 344.50 59.00 L 345.00 59.50 L 346.00 59.50 L 346.50 60.00 L 347.00 60.50 L 347.50 61.00 L 348.00 61.50 L 349.00 61.50 L 349.50 62.00 L 350.00 62.50 L 350.50 63.00 L 351.00 63.50 L 352.00 63.50 L 352.50 64.00 L 353.00 64.50 L 353.50 65.00 L 354.00 65.50 L 354.50 66.00 L 355.00 66.50 L 356.00 66.50 L 356.50 67.00 L 357.00 67.50 L 357.50 68.00 L 358.00 68.50 L 358.50 69.00 L 359.00 69.50 L 359.50 70.00 L 360.00 70.50 L 360.50 71.00 L 361.00 71.50 L 361.50 72.00 L 362.00 72.50 L 362.50 73.00 L 363.00 73.50 L 363.50 74.00 L 364.00 74.50 L 364.50 75.00 L 364.50 76.00 L 365.00 76.50 L 365.50 77.00 L 366.00 77.50 L 366.50 78.00 L 366.50 79.00 L 366.50 80.00 L 366.50 81.00 L 367.00 81.50 L 367.50 82.00 L 367.50 83.00 L 367.50 84.00 L 367.50 85.00 L 367.50 86.00 L 367.00 86.50 L 366.50 87.00 L 366.50 88.00 L 366.50 89.00 L 366.00 89.50 L 365.50 90.00 L 365.50 91.00 L 365.00 91.50 L 364.50 92.00 L 364.00 92.50 L 363.50 93.00 L 363.00 93.50 L 362.50 94.00 L 362.00 94.50 L 361.50 95.00 L 361.00 95.50 L 360.50 96.00 L 360.00 96.50 L 359.50 97.00 L 359.50 98.00 L 359.00 98.50 L 358.50 99.00 L 358.00 99.50 L 357.50 100.00 L 357.00 100.50 L 356.50 101.00 L 356.00 101.50 L 355.50 102.00 L 355.00 102.50 L 354.50 103.00 L 354.00 103.50 L 353.50 104.00 L 353.00 104.50 L 352.50 105.00 L 352.00 105.50 L 351.50 106.00 L 351.00 106.50 L 350.50 107.00 L 350.00 107.50 L 349.50 108.00 L 349.00 108.50 L 348.50 109.00 L 348.00 109.50 L 347.50 110.00 L 347.00 110.50 L 346.50 111.00 L 346.00 111.50 L 345.50 112.00 L 345.00 112.50 L 344.50 113.00 L 344.50 114.00 L 344.00 114.50 L 343.50 115.00 L 343.00 115.50 L 342.50 116.00 L 342.00 116.50 L 341.50 117.00 L 341.00 117.50 L 340.50 118.00 L 340.00 118.50 L 339.50 119.00 L 339.00 119.50 L 338.50 120.00 L 338.00 120.50 L 337.50 121.00 L 337.00 121.50 L 336.50 122.00 L 336.00 122.50 L 335.50 123.00 L 335.00 123.50 L 334.50 124.00 L 334.50 125.00 L 334.00 125.50 L 333.50 126.00 L 333.00 126.50 L 332.50 127.00 L 332.00 127.50 L 331.50 128.00 L 331.00 128.50 L 330.50 129.00 L 330.00 129.50 L 329.50 130.00 L 329.00 130.50 L 328.00 130.50 L 327.50 131.00 L 327.00 131.50 L 326.00 131.50 L 325.50 132.00 L 325.00 132.50 L 324.00 132.50 L 323.00 132.50 L 322.00 132.50 L 321.50 133.00 L 321.00 133.50 L 320.00 133.50 L 319.00 133.50 L 318.00 133.50 L 317.50 133.00 L 317.00 132.50 L 316.00 132.50 L 315.00 132.50 L 314.00 132.50 L 313.50 132.00 L 313.00 131.50 L 312.00 131.50 L 311.00 131.50 L 310.50 131.00 L 310.00 130.50 L 309.50 130.00 L 309.00 129.50 L 308.00 129.50 L 307.50 129.00 L 307.00 128.50 L 306.50 128.00 L 306.00 127.50 L 305.00 127.50 L 304.50 127.00 L 304.00 126.50 L 303.50 126.00 L 303.00 125.50 L 302.00 125.50 L 301.50 125.00 L 301.00 124.50 L 300.00 124.50 L 299.50 124.00 L 299.00 123.50 L 298.00 123.50 L 297.50 123.00 L 297.00 122.50 L 296.00 122.50 L 295.50 122.00 L 295.00 121.50 L 294.00 121.50 L 293.50 121.00 L 293.00 120.50 L 292.00 120.50 L 291.50 120.00 L 291.00 119.50 L 290.00 119.50 L 289.50 119.00 L 289.00 118.50 L 288.00 118.50 L 287.50 118.00 L 287.00 117.50 L 286.00 117.50 L 285.00 117.50 L 284.50 117.00 L 284.00 116.50 L 283.00 116.50 L 282.00 116.50 L 281.50 116.00 L 281.00 115.50 L 280.00 115.50 L 279.00 115.50 L 278.50 115.00 L 278.00 114.50 L 277.00 114.50 L 276.00 114.50 L 275.50 114.00 L 275.00 113.50 L 274.00 113.50 L 273.00 113.50 L 272.00 113.50 L 271.50 113.00 L 271.00 112.50 L 270.00 112.50 L 269.00 112.50 L 268.00 112.50 L 267.00 112.50 L 266.00 112.50 L 265.50 112.00 L 265.00 111.50 L 264.00 111.50 L 263.00 111.50 L 262.00 111.50 L 261.00 111.50 L 260.00 111.50 L 259.00 111.50 L 258.00 111.50 L 257.50 111.00 L 257.00 110.50 L 256.00 110.50 L 255.00 110.50 L 254.00 110.50 L 253.00 110.50 L 252.00 110.50 L 251.00 110.50 L 250.00 110.50 L 249.00 110.50 L 248.00 110.50 L 247.00 110.50 L 246.00 110.50 L 245.00 110.50 L 244.00 110.50 L 243.00 110.50 L 242.00 110.50 L 241.00 110.50 L 240.00 110.50 L 239.00 110.50 L 238.00 110.50 L 237.50 111.00 L 237.00 111.50 L 236.00 111.50 L 235.00 111.50 L 234.00 111.50 L 233.00 111.50 L 232.00 111.50 L 231.00 111.50 L 230.00 111.50 L 229.50 112.00 L 229.00 112.50 L 228.00 112.50 L 227.00 112.50 L 226.00 112.50 L 225.00 112.50 L 224.00 112.50 L 223.50 113.00 L 223.00 113.50 L 222.00 113.50 L 221.00 113.50 L 220.50 114.00 L 220.00 114.50 L 219.00 114.50 L 218.00 114.50 L 217.00 114.50 L 216.50 115.00 L 216.00 115.50 L 215.00 115.50 L 214.00 115.50 L 213.50 116.00 L 213.00 116.50 L 212.00 116.50 L 211.00 116.50 L 210.50 117.00 L 210.00 117.50 L 209.00 117.50 L 208.00 117.50 L 207.50 118.00 L 207.00 118.50 L 206.00 118.50 L 205.00 118.50 L 204.50 119.00 L 204.00 119.50 L 203.00 119.50 L 202.00 119.50 L 201.50 120.00 L 201.00 120.50 L 200.00 120.50 L 199.50 121.00 L 199.00 121.50 L 198.00 121.50 L 197.50 122.00 L 197.00 122.50 L 196.00 122.50 L 195.50 123.00 L 195.00 123.50 L 194.00 123.50 L 193.50 124.00 L 193.00 124.50 L 192.00 124.50 L 191.50 125.00 L 191.00 125.50 L 190.50 126.00 L 190.00 126.50 L 189.00 126.50 L 188.50 127.00 L 188.00 127.50 L 187.00 127.50 L 186.50 128.00 L 186.00 128.50 L 185.50 129.00 L 185.00 129.50 L 184.00 129.50 L 183.50 130.00 L 183.00 130.50 L 182.50 131.00 L 182.00 131.50 L 181.00 131.50 L 180.50 132.00 L 180.00 132.50 L 179.50 133.00 L 179.00 133.50 L 178.00 133.50 L 177.50 134.00 L 177.00 134.50 L 176.50 135.00 L 176.00 135.50 L 175.50 136.00 L 175.00 136.50 L 174.50 137.00 L 174.00 137.50 L 173.00 137.50 L 172.50 138.00 L 172.00 138.50 L 171.50 139.00 L 171.00 139.50 L 170.50 140.00 L 170.00 140.50 L 169.50 141.00 L 169.00 141.50 L 168.50 142.00 L 168.00 142.50 L 167.50 143.00 L 167.00 143.50 L 166.50 144.00 L 166.00 144.50 L 165.50 145.00 L 165.50 146.00 L 165.00 146.50 L 164.50 147.00 L 164.00 147.50 L 163.50 148.00 L 163.00 148.50 L 162.50 149.00 L 162.00 149.50 L 161.50 150.00 L 161.00 150.50 L 160.50 151.00 L 160.00 151.50 L 159.50 152.00 L 159.00 152.50 L 158.50 153.00 L 158.50 154.00 L 158.00 154.50 L 157.50 155.00 L 157.00 155.50 L 156.50 156.00 L 156.00 156.50 L 155.50 157.00 L 155.00 157.50 L 154.50 158.00 L 154.50 159.00 L 154.00 159.50 L 153.50 160.00 L 153.50 161.00 L 153.00 161.50 L 152.50 162.00 L 152.00 162.50 L 151.50 163.00 L 151.50 164.00 L 151.00 164.50 L 150.50 165.00 L 150.50 166.00 L 150.00 166.50 L 149.50 167.00 L 149.50 168.00 L 149.00 168.50 L 148.50 169.00 L 148.50 170.00 L 148.00 170.50 L 147.50 171.00 L 147.50 172.00 L 147.00 172.50 L 146.50 173.00 L 146.50 174.00 L 146.00 174.50 L 145.50 175.00 L 145.50 176.00 L 145.00 176.50 L 144.50 177.00 L 144.50 178.00 L 144.50 179.00 L 144.00 179.50 L 143.50 180.00 L 143.50 181.00 L 143.00 181.50 L 142.50 182.00 L 142.50 183.00 L 142.00 183.50 L 141.50 184.00 L 141.50 185.00 L 141.50 186.00 L 141.00 186.50 L 140.50 187.00 L 140.50 188.00 L 140.50 189.00 L 140.50 190.00 L 140.00 190.50 L 139.50 191.00 L 139.50 192.00 L 139.50 193.00 L 139.00 193.50 L 138.50 194.00 L 138.50 195.00 L 138.50 196.00 L 138.50 197.00 L 138.50 198.00 L 138.00 198.50 L 137.50 199.00 L 137.50 200.00 L 137.50 201.00 L 137.50 202.00 L 137.50 203.00 L 137.50 204.00 L 137.50 205.00 L 137.00 205.50 L 136.50 206.00 L 136.50 207.00 L 136.50 208.00 L 136.50 209.00 L 136.50 210.00 L 136.50 211.00 L 136.50 212.00 L 136.50 213.00 L 136.50 214.00 L 136.50 215.00 L 136.50 216.00 L 136.50 217.00 L 136.50 218.00 L 136.50 219.00 L 136.50 220.00 L 136.50 221.00 L 136.50 222.00 L 136.50 223.00 L 136.50 224.00 L 136.50 225.00 L 136.50 226.00 L 136.50 227.00 L 136.50 228.00 L 137.00 228.50 L 137.50 229.00 L 137.50 230.00 L 137.50 231.00 L 137.50 232.00 L 137.50 233.00 L 137.50 234.00 L 138.00 234.50 L 138.50 235.00 L 138.50 236.00 L 138.50 237.00 L 138.50 238.00 L 138.50 239.00 L 139.00 239.50 L 139.50 240.00 L 139.50 241.00 L 139.50 242.00 L 140.00 242.50 L 140.50 243.00 L 140.50 244.00 L 140.50 245.00 L 141.00 245.50 L 141.50 246.00 L 141.50 247.00 L 141.50 248.00 L 142.00 248.50 L 142.50 249.00 L 142.50 250.00 L 142.50 251.00 L 143.00 251.50 L 143.50 252.00 L 143.50 253.00 L 144.00 253.50 L 144.50 254.00 L 144.50 255.00 L 144.50 256.00 L 145.00 256.50 L 145.50 257.00 L 145.50 258.00 L 146.00 258.50 L 146.50 259.00 L 146.50 260.00 L 147.00 260.50 L 147.50 261.00 L 147.50 262.00 L 147.50 263.00 L 148.00 263.50 L 148.50 264.00 L 149.00 264.50 L 149.50 265.00 L 149.50 266.00 L 150.00 266.50 L 150.50 267.00 L 150.50 268.00 L 151.00 268.50 L 151.50 269.00 L 151.50 270.00 L 152.00 270.50 L 152.50 271.00 L 153.00 271.50 L 153.50 272.00 L 153.50 273.00 L 154.00 273.50 L 154.50 274.00 L 155.00 274.50 L 155.50 275.00 L 155.50 276.00 L 156.00 276.50 L 156.50 277.00 L 157.00 277.50 L 157.50 278.00 L 158.00 278.50 L 158.50 279.00 L 159.00 279.50 L 159.50 280.00 L 160.00 280.50 L 160.50 281.00 L 160.50 282.00 L 161.00 282.50 L 161.50 283.00 L 162.00 283.50 L 162.50 284.00 L 163.00 284.50 L 163.50 285.00 L 164.00 285.50 L 164.50 286.00 L 165.00 286.50 L 165.50 287.00 L 166.00 287.50 L 166.50 288.00 L 167.00 288.50 L 167.50 289.00 L 168.00 289.50 L 168.50 290.00 L 169.00 290.50 L 170.00 290.50 L 170.50 291.00 L 171.00 291.50 L 171.50 292.00 L 172.00 292.50 L 172.50 293.00 L 173.00 293.50 L 173.50 294.00 L 174.00 294.50 L 174.50 295.00 L 175.00 295.50 L 175.50 296.00 L 176.00 296.50 L 176.50 297.00 L 177.00 297.50 L 177.50 298.00 L 178.00 298.50 L 178.50 299.00 L 178.50 300.00 L 179.00 300.50 L 179.50 301.00 L 180.00 301.50 L 180.50 302.00 L 180.50 303.00 L 180.50 304.00 L 181.00 304.50 L 181.50 305.00 L 181.50 306.00 L 181.50 307.00 L 181.50 308.00 L 181.50 309.00 L 181.50 310.00 L 181.50 311.00 L 181.50 312.00 L 181.50 313.00 L 181.00 313.50 L 180.50 314.00 L 180.50 315.00 L 180.50 316.00 L 180.00 316.50 L 179.50 317.00 L 179.50 318.00 L 179.00 318.50 L 178.50 319.00 L 178.00 319.50 L 177.50 320.00 L 177.00 320.50 L 176.50 321.00 L 176.50 322.00 L 176.00 322.50 L 175.50 323.00 L 175.00 323.50 L 174.50 324.00 L 174.00 324.50 L 173.50 325.00 L 173.00 325.50 L 172.50 326.00 L 172.00 326.50 L 171.50 327.00 L 171.00 327.50 L 170.50 328.00 L 170.00 328.50 L 169.50 329.00 L 169.00 329.50 L 168.50 330.00 L 168.00 330.50 L 167.50 331.00 L 167.50 332.00 L 167.00 332.50 L 166.50 333.00 L 166.00 333.50 L 165.50 334.00 L 165.00 334.50 L 164.50 335.00 L 164.00 335.50 L 163.50 336.00 L 163.00 336.50 L 162.50 337.00 L 162.00 337.50 L 161.50 338.00 L 161.00 338.50 L 160.50 339.00 L 160.00 339.50 L 159.50 340.00 L 159.00 340.50 L 158.50 341.00 L 158.00 341.50 L 157.50 342.00 L 157.00 342.50 L 156.50 343.00 L 156.00 343.50 L 155.50 344.00 L 155.00 344.50 L 154.50 345.00 L 154.00 345.50 L 153.50 346.00 L 153.00 346.50 L 152.50 347.00 L 152.00 347.50 L 151.50 348.00 L 151.00 348.50 L 150.50 349.00 L 150.50 350.00 L 150.00 350.50 L 149.00 350.50 L 148.50 351.00 L 148.00 351.50 L 147.50 352.00 L 147.00 352.50 L 146.50 353.00 L 146.00 353.50 L 145.00 353.50 L 144.50 354.00 L 144.00 354.50 L 143.00 354.50 L 142.50 355.00 L 142.00 355.50 Z" fill="#f5f5f5"/>
<path d="M 259.00 284.50 L 258.00 284.50 L 257.00 284.50 L 256.00 284.50 L 255.00 284.50 L 254.00 284.50 L 253.00 284.50 L 252.00 284.50 L 251.00 284.50 L 250.50 284.00 L 250.00 283.50 L 249.00 283.50 L 248.00 283.50 L 247.00 283.50 L 246.00 283.50 L 245.00 283.50 L 244.00 283.50 L 243.50 283.00 L 243.00 282.50 L 242.00 282.50 L 241.00 282.50 L 240.00 282.50 L 239.50 282.00 L 239.00 281.50 L 238.00 281.50 L 237.50 281.00 L 237.00 280.50 L 236.00 280.50 L 235.00 280.50 L 234.50 280.00 L 234.00 279.50 L 233.00 279.50 L 232.50 279.00 L 232.00 278.50 L 231.00 278.50 L 230.50 278.00 L 230.00 277.50 L 229.00 277.50 L 228.50 277.00 L 228.00 276.50 L 227.50 276.00 L 227.00 275.50 L 226.00 275.50 L 225.50 275.00 L 225.00 274.50 L 224.50 274.00 L 224.00 273.50 L 223.50 273.00 L 223.00 272.50 L 222.50 272.00 L 222.00 271.50 L 221.00 271.50 L 220.50 271.00 L 220.00 270.50 L 219.50 270.00 L 219.00 269.50 L 218.50 269.00 L 218.00 268.50 L 217.50 268.00 L 217.00 267.50 L 216.50 267.00 L 216.00 266.50 L 215.50 266.00 L 215.50 265.00 L 215.00 264.50 L 214.50 264.00 L 214.00 263.50 L 213.50 263.00 L 213.50 262.00 L 213.00 261.50 L 212.50 261.00 L 212.00 260.50 L 211.50 260.00 L 211.50 259.00 L 211.00 258.50 L 210.50 258.00 L 210.50 257.00 L 210.00 256.50 L 209.50 256.00 L 209.50 255.00 L 209.00 254.50 L 208.50 254.00 L 208.50 253.00 L 208.00 252.50 L 207.50 252.00 L 207.50 251.00 L 207.50 250.00 L 207.00 249.50 L 206.50 249.00 L 206.50 248.00 L 206.50 247.00 L 206.50 246.00 L 206.00 245.50 L 205.50 245.00 L 205.50 244.00 L 205.50 243.00 L 205.50 242.00 L 205.50 241.00 L 205.50 240.00 L 205.00 239.50 L 204.50 239.00 L 204.50 238.00 L 204.50 237.00 L 204.50 236.00 L 204.50 235.00 L 204.50 234.00 L 204.50 233.00 L 204.50 232.00 L 204.50 231.00 L 204.50 230.00 L 204.50 229.00 L 205.00 228.50 L 205.50 228.00 L 205.50 227.00 L 205.50 226.00 L 205.50 225.00 L 205.50 224.00 L 206.00 223.50 L 206.50 223.00 L 206.50 222.00 L 206.50 221.00 L 206.50 220.00 L 207.00 219.50 L 207.50 219.00 L 207.50 218.00 L 208.00 217.50 L 208.50 217.00 L 208.50 216.00 L 208.50 215.00 L 209.00 214.50 L 209.50 214.00 L 209.50 213.00 L 210.00 212.50 L 210.50 212.00 L 210.50 211.00 L 211.00 210.50 L 211.50 210.00 L 211.50 209.00 L 212.00 208.50 L 212.50 208.00 L 213.00 207.50 L 213.50 207.00 L 213.50 206.00 L 214.00 205.50 L 214.50 205.00 L 215.00 204.50 L 215.50 204.00 L 216.00 203.50 L 216.50 203.00 L 217.00 202.50 L 217.50 202.00 L 217.50 201.00 L 218.00 200.50 L 218.50 200.00 L 219.00 199.50 L 219.50 199.00 L 220.00 198.50 L 220.50 198.00 L 221.00 197.50 L 221.50 197.00 L 222.00 196.50 L 223.00 196.50 L 223.50 196.00 L 224.00 195.50 L 224.50 195.00 L 225.00 194.50 L 225.50 194.00 L 226.00 193.50 L 226.50 193.00 L 227.00 192.50 L 228.00 192.50 L 228.50 192.00 L 229.00 191.50 L 230.00 191.50 L 230.50 191.00 L 231.00 190.50 L 231.50 190.00 L 232.00 189.50 L 233.00 189.50 L 234.00 189.50 L 234.50 189.00 L 235.00 188.50 L 236.00 188.50 L 236.50 188.00 L 237.00 187.50 L 238.00 187.50 L 239.00 187.50 L 239.50 187.00 L 240.00 186.50 L 241.00 186.50 L 242.00 186.50 L 242.50 186.00 L 243.00 185.50 L 244.00 185.50 L 245.00 185.50 L 246.00 185.50 L 247.00 185.50 L 248.00 185.50 L 248.50 185.00 L 249.00 184.50 L 250.00 184.50 L 251.00 184.50 L 252.00 184.50 L 253.00 184.50 L 254.00 184.50 L 255.00 184.50 L 256.00 184.50 L 257.00 184.50 L 258.00 184.50 L 259.00 184.50 L 260.00 184.50 L 261.00 184.50 L 261.50 185.00 L 262.00 185.50 L 263.00 185.50 L 264.00 185.50 L 265.00 185.50 L 266.00 185.50 L 266.50 186.00 L 267.00 186.50 L 268.00 186.50 L 269.00 186.50 L 270.00 186.50 L 270.50 187.00 L 271.00 187.50 L 272.00 187.50 L 273.00 187.50 L 273.50 188.00 L 274.00 188.50 L 275.00 188.50 L 275.50 189.00 L 276.00 189.50 L 277.00 189.50 L 277.50 190.00 L 278.00 190.50 L 279.00 190.50 L 279.50 191.00 L 280.00 191.50 L 280.50 192.00 L 281.00 192.50 L 282.00 192.50 L 282.50 193.00 L 283.00 193.50 L 283.50 194.00 L 284.00 194.50 L 285.00 194.50 L 285.50 195.00 L 286.00 195.50 L 286.50 196.00 L 287.00 196.50 L 287.50 197.00 L 288.00 197.50 L 288.50 198.00 L 289.00 198.50 L 289.50 199.00 L 290.00 199.50 L 290.50 200.00 L 291.00 200.50 L 291.50 201.00 L 292.00 201.50 L 292.50 202.00 L 293.00 202.50 L 293.50 203.00 L 294.00 203.50 L 294.50 204.00 L 294.50 205.00 L 295.00 205.50 L 295.50 206.00 L 296.00 206.50 L 296.50 207.00 L 296.50 208.00 L 297.00 208.50 L 297.50 209.00 L 297.50 210.00 L 298.00 210.50 L 298.50 211.00 L 298.50 212.00 L 299.00 212.50 L 299.50 213.00 L 299.50 214.00 L 300.00 214.50 L 300.50 215.00 L 300.50 216.00 L 301.00 216.50 L 301.50 217.00 L 301.50 218.00 L 301.50 219.00 L 302.00 219.50 L 302.50 220.00 L 302.50 221.00 L 302.50 222.00 L 302.50 223.00 L 303.00 223.50 L 303.50 224.00 L 303.50 225.00 L 303.50 226.00 L 303.50 227.00 L 303.50 228.00 L 304.00 228.50 L 304.50 229.00 L 304.50 230.00 L 304.50 231.00 L 304.50 232.00 L 304.50 233.00 L 304.50 234.00 L 304.50 235.00 L 304.50 236.00 L 304.50 237.00 L 304.50 238.00 L 304.50 239.00 L 304.50 240.00 L 304.00 240.50 L 303.50 241.00 L 303.50 242.00 L 303.50 243.00 L 303.50 244.00 L 303.50 245.00 L 303.00 245.50 L 302.50 246.00 L 302.50 247.00 L 302.50 248.00 L 302.50 249.00 L 302.00 249.50 L 301.50 250.00 L 301.50 251.00 L 301.50 252.00 L 301.00 252.50 L 300.50 253.00 L 300.50 254.00 L 300.00 254.50 L 299.50 255.00 L 299.50 256.00 L 299.00 256.50 L 298.50 257.00 L 298.50 258.00 L 298.00 258.50 L 297.50 259.00 L 297.50 260.00 L 297.00 260.50 L 296.50 261.00 L 296.50 262.00 L 296.00 262.50 L 295.50 263.00 L 295.00 263.50 L 294.50 264.00 L 294.00 264.50 L 293.50 265.00 L 293.50 266.00 L 293.00 266.50 L 292.50 267.00 L 292.00 267.50 L 291.50 268.00 L 291.00 268.50 L 290.50 269.00 L 290.00 269.50 L 289.50 270.00 L 289.00 270.50 L 288.50 271.00 L 288.00 271.50 L 287.50 272.00 L 287.00 272.50 L 286.50 273.00 L 286.00 273.50 L 285.00 273.50 L 284.50 274.00 L 284.00 274.50 L 283.50 275.00 L 283.00 275.50 L 282.50 276.00 L 282.00 276.50 L 281.00 276.50 L 280.50 277.00 L 280.00 277.50 L 279.00 277.50 L 278.50 278.00 L 278.00 278.50 L 277.50 279.00 L 277.00 279.50 L 276.00 279.50 L 275.00 279.50 L 274.50 280.00 L 274.00 280.50 L 273.00 280.50 L 272.50 281.00 L 272.00 281.50 L 271.00 281.50 L 270.00 281.50 L 269.50 282.00 L 269.00 282.50 L 268.00 282.50 L 267.00 282.50 L 266.00 282.50 L 265.50 283.00 L 265.00 283.50 L 264.00 283.50 L 263.00 283.50 L 262.00 283.50 L 261.00 283.50 L 260.00 283.50 L 259.50 284.00 L 259.00 284.50 Z" fill="#f5f5f5"/>
<path d="M 305.00 502.50 L 304.00 502.50 L 303.00 502.50 L 302.00 502.50 L 301.00 502.50 L 300.00 502.50 L 299.00 502.50 L 298.00 502.50 L 297.00 502.50 L 296.00 502.50 L 295.00 502.50 L 294.00 502.50 L 293.00 502.50 L 292.00 502.50 L 291.00 502.50 L 290.00 502.50 L 289.00 502.50 L 288.00 502.50 L 287.00 502.50 L 286.00 502.50 L 285.00 502.50 L 284.00 502.50 L 283.50 502.00 L 283.00 501.50 L 282.00 501.50 L 281.00 501.50 L 280.00 501.50 L 279.00 501.50 L 278.00 501.50 L 277.00 501.50 L 276.00 501.50 L 275.00 501.50 L 274.00 501.50 L 273.00 501.50 L 272.50 501.00 L 272.00 500.50 L 271.00 500.50 L 270.00 500.50 L 269.00 500.50 L 268.00 500.50 L 267.00 500.50 L 266.00 500.50 L 265.50 500.00 L 265.00 499.50 L 264.00 499.50 L 263.00 499.50 L 262.00 499.50 L 261.00 499.50 L 260.00 499.50 L 259.50 499.00 L 259.00 498.50 L 258.00 498.50 L 257.00 498.50 L 256.00 498.50 L 255.50 498.00 L 255.00 497.50 L 254.00 497.50 L 253.00 497.50 L 252.00 497.50 L 251.00 497.50 L 250.50 497.00 L 250.00 496.50 L 249.00 496.50 L 248.00 496.50 L 247.50 496.00 L 247.00 495.50 L 246.00 495.50 L 245.00 495.50 L 244.00 495.50 L 243.50 495.00 L 243.00 494.50 L 242.00 494.50 L 241.00 494.50 L 240.50 494.00 L 240.00 493.50 L 239.00 493.50 L 238.00 493.50 L 237.00 493.50 L 236.50 493.00 L 236.00 492.50 L 235.00 492.50 L 234.00 492.50 L 233.50 492.00 L 233.00 491.50 L 232.00 491.50 L 231.00 491.50 L 230.50 491.00 L 230.00 490.50 L 229.00 490.50 L 228.00 490.50 L 227.50 490.00 L 227.00 489.50 L 226.00 489.50 L 225.50 489.00 L 225.00 488.50 L 224.00 488.50 L 223.00 488.50 L 222.50 488.00 L 222.00 487.50 L 221.00 487.50 L 220.00 487.50 L 219.50 487.00 L 219.00 486.50 L 218.00 486.50 L 217.50 486.00 L 217.00 485.50 L 216.00 485.50 L 215.50 485.00 L 215.00 484.50 L 214.00 484.50 L 213.50 484.00 L 213.00 483.50 L 212.00 483.50 L 211.50 483.00 L 211.00 482.50 L 210.00 482.50 L 209.50 482.00 L 209.00 481.50 L 208.00 481.50 L 207.50 481.00 L 207.00 480.50 L 206.00 480.50 L 205.50 480.00 L 205.00 479.50 L 204.00 479.50 L 203.50 479.00 L 203.00 478.50 L 202.00 478.50 L 201.50 478.00 L 201.00 477.50 L 200.50 477.00 L 200.00 476.50 L 199.00 476.50 L 198.50 476.00 L 198.00 475.50 L 197.50 475.00 L 197.00 474.50 L 196.00 474.50 L 195.50 474.00 L 195.00 473.50 L 194.50 473.00 L 194.00 472.50 L 193.00 472.50 L 192.50 472.00 L 192.00 471.50 L 191.50 471.00 L 191.00 470.50 L 190.00 470.50 L 189.50 470.00 L 189.00 469.50 L 188.50 469.00 L 188.00 468.50 L 187.50 468.00 L 187.00 467.50 L 186.00 467.50 L 185.50 467.00 L 185.00 466.50 L 184.50 466.00 L 184.00 465.50 L 183.50 465.00 L 183.00 464.50 L 182.50 464.00 L 182.00 463.50 L 181.50 463.00 L 181.00 462.50 L 180.00 462.50 L 179.50 462.00 L 179.50 461.00 L 179.00 460.50 L 178.50 460.00 L 178.00 459.50 L 177.50 459.00 L 177.00 458.50 L 176.50 458.00 L 176.50 457.00 L 176.00 456.50 L 175.50 456.00 L 175.50 455.00 L 175.50 454.00 L 175.50 453.00 L 175.50 452.00 L 175.00 451.50 L 174.50 451.00 L 174.50 450.00 L 175.00 449.50 L 175.50 449.00 L 175.50 448.00 L 175.50 447.00 L 175.50 446.00 L 175.50 445.00 L 176.00 444.50 L 176.50 444.00 L 176.50 443.00 L 177.00 442.50 L 177.50 442.00 L 177.50 441.00 L 178.00 440.50 L 178.50 440.00 L 179.00 439.50 L 179.50 439.00 L 180.00 438.50 L 180.50 438.00 L 181.00 437.50 L 181.50 437.00 L 182.00 436.50 L 182.50 436.00 L 183.00 435.50 L 183.50 435.00 L 184.00 434.50 L 184.50 434.00 L 185.00 433.50 L 185.50 433.00 L 186.00 432.50 L 186.50 432.00 L 187.00 431.50 L 187.50 431.00 L 188.00 430.50 L 188.50 430.00 L 189.00 429.50 L 189.50 429.00 L 190.00 428.50 L 190.50 428.00 L 191.00 427.50 L 191.50 427.00 L 192.00 426.50 L 192.50 426.00 L 193.00 425.50 L 193.50 425.00 L 194.00 424.50 L 194.50 424.00 L 195.00 423.50 L 195.50 423.00 L 195.50 422.00 L 196.00 421.50 L 196.50 421.00 L 197.00 420.50 L 197.50 420.00 L 198.00 419.50 L 198.50 419.00 L 199.00 418.50 L 199.50 418.00 L 200.00 417.50 L 200.50 417.00 L 201.00 416.50 L 201.50 416.00 L 202.00 415.50 L 202.50 415.00 L 203.00 414.50 L 203.50 414.00 L 204.00 413.50 L 204.50 413.00 L 205.00 412.50 L 205.50 412.00 L 206.00 411.50 L 206.50 411.00 L 207.00 410.50 L 207.50 410.00 L 208.00 409.50 L 208.50 409.00 L 209.00 408.50 L 209.50 408.00 L 210.00 407.50 L 210.50 407.00 L 211.00 406.50 L 211.50 406.00 L 212.00 405.50 L 212.50 405.00 L 213.00 404.50 L 213.50 404.00 L 214.00 403.50 L 214.50 403.00 L 215.00 402.50 L 216.00 402.50 L 216.50 402.00 L 217.00 401.50 L 218.00 401.50 L 218.50 401.00 L 219.00 400.50 L 220.00 400.50 L 221.00 400.50 L 222.00 400.50 L 223.00 400.50 L 224.00 400.50 L 225.00 400.50 L 226.00 400.50 L 226.50 401.00 L 227.00 401.50 L 228.00 401.50 L 228.50 402.00 L 229.00 402.50 L 230.00 402.50 L 230.50 403.00 L 231.00 403.50 L 231.50 404.00 L 232.00 404.50 L 233.00 404.50 L 233.50 405.00 L 234.00 405.50 L 234.50 406.00 L 235.00 406.50 L 236.00 406.50 L 236.50 407.00 L 237.00 407.50 L 237.50 408.00 L 238.00 408.50 L 239.00 408.50 L 239.50 409.00 L 240.00 409.50 L 240.50 410.00 L 241.00 410.50 L 242.00 410.50 L 242.50 411.00 L 243.00 411.50 L 244.00 411.50 L 244.50 412.00 L 245.00 412.50 L 246.00 412.50 L 246.50 413.00 L 247.00 413.50 L 247.50 414.00 L 248.00 414.50 L 249.00 414.50 L 250.00 414.50 L 250.50 415.00 L 251.00 415.50 L 252.00 415.50 L 252.50 416.00 L 253.00 416.50 L 254.00 416.50 L 254.50 417.00 L 255.00 417.50 L 256.00 417.50 L 256.50 418.00 L 257.00 418.50 L 258.00 418.50 L 259.00 418.50 L 259.50 419.00 L 260.00 419.50 L 261.00 419.50 L 262.00 419.50 L 262.50 420.00 L 263.00 420.50 L 264.00 420.50 L 265.00 420.50 L 265.50 421.00 L 266.00 421.50 L 267.00 421.50 L 268.00 421.50 L 269.00 421.50 L 269.50 422.00 L 270.00 422.50 L 271.00 422.50 L 272.00 422.50 L 273.00 422.50 L 274.00 422.50 L 274.50 423.00 L 275.00 423.50 L 276.00 423.50 L 277.00 423.50 L 278.00 423.50 L 279.00 423.50 L 280.00 423.50 L 281.00 423.50 L 281.50 424.00 L 282.00 424.50 L 283.00 424.50 L 284.00 424.50 L 285.00 424.50 L 286.00 424.50 L 287.00 424.50 L 288.00 424.50 L 289.00 424.50 L 290.00 424.50 L 291.00 424.50 L 292.00 424.50 L 293.00 424.50 L 294.00 424.50 L 295.00 424.50 L 296.00 424.50 L 297.00 424.50 L 298.00 424.50 L 299.00 424.50 L 300.00 424.50 L 301.00 424.50 L 302.00 424.50 L 303.00 424.50 L 304.00 424.50 L 305.00 424.50 L 306.00 424.50 L 307.00 424.50 L 307.50 424.00 L 308.00 423.50 L 309.00 423.50 L 310.00 423.50 L 311.00 423.50 L 312.00 423.50 L 313.00 423.50 L 314.00 423.50 L 314.50 423.00 L 315.00 422.50 L 316.00 422.50 L 317.00 422.50 L 318.00 422.50 L 319.00 422.50 L 319.50 422.00 L 320.00 421.50 L 321.00 421.50 L 322.00 421.50 L 323.00 421.50 L 323.50 421.00 L 324.00 420.50 L 325.00 420.50 L 326.00 420.50 L 326.50 420.00 L 327.00 419.50 L 328.00 419.50 L 329.00 419.50 L 329.50 419.00 L 330.00 418.50 L 331.00 418.50 L 332.00 418.50 L 332.50 418.00 L 333.00 417.50 L 334.00 417.50 L 335.00 417.50 L 335.50 417.00 L 336.00 416.50 L 337.00 416.50 L 337.50 416.00 L 338.00 415.50 L 339.00 415.50 L 339.50 415.00 L 340.00 414.50 L 341.00 414.50 L 342.00 414.50 L 342.50 414.00 L 343.00 413.50 L 344.00 413.50 L 344.50 413.00 L 345.00 412.50 L 345.50 412.00 L 346.00 411.50 L 347.00 411.50 L 347.50 411.00 L 348.00 410.50 L 349.00 410.50 L 349.50 410.00 L 350.00 409.50 L 351.00 409.50 L 351.50 409.00 L 352.00 408.50 L 352.50 408.00 L 353.00 407.50 L 354.00 407.50 L 354.50 407.00 L 355.00 406.50 L 355.50 406.00 L 356.00 405.50 L 357.00 405.50 L 357.50 405.00 L 358.00 404.50 L 358.50 404.00 L 359.00 403.50 L 359.50 403.00 L 360.00 402.50 L 360.50 402.00 L 361.00 401.50 L 362.00 401.50 L 362.50 401.00 L 363.00 400.50 L 363.50 400.00 L 364.00 399.50 L 364.50 399.00 L 365.00 398.50 L 365.50 398.00 L 366.00 397.50 L 366.50 397.00 L 367.00 396.50 L 367.50 396.00 L 368.00 395.50 L 368.50 395.00 L 369.00 394.50 L 369.50 394.00 L 370.00 393.50 L 370.50 393.00 L 371.00 392.50 L 371.50 392.00 L 372.00 391.50 L 372.50 391.00 L 373.00 390.50 L 373.50 390.00 L 374.00 389.50 L 374.50 389.00 L 375.00 388.50 L 375.50 388.00 L 375.50 387.00 L 376.00 386.50 L 376.50 386.00 L 377.00 385.50 L 377.50 385.00 L 378.00 384.50 L 378.50 384.00 L 378.50 383.00 L 379.00 382.50 L 379.50 382.00 L 380.00 381.50 L 380.50 381.00 L 380.50 380.00 L 381.00 379.50 L 381.50 379.00 L 382.00 378.50 L 382.50 378.00 L 382.50 377.00 L 383.00 376.50 L 383.50 376.00 L 383.50 375.00 L 384.00 374.50 L 384.50 374.00 L 385.00 373.50 L 385.50 373.00 L 385.50 372.00 L 386.00 371.50 L 386.50 371.00 L 386.50 370.00 L 387.00 369.50 L 387.50 369.00 L 387.50 368.00 L 387.50 367.00 L 388.00 366.50 L 388.50 366.00 L 388.50 365.00 L 389.00 364.50 L 389.50 364.00 L 389.50 363.00 L 389.50 362.00 L 390.00 361.50 L 390.50 361.00 L 390.50 360.00 L 390.50 359.00 L 391.00 358.50 L 391.50 358.00 L 391.50 357.00 L 391.50 356.00 L 392.00 355.50 L 392.50 355.00 L 392.50 354.00 L 392.50 353.00 L 392.50 352.00 L 393.00 351.50 L 393.50 351.00 L 393.50 350.00 L 393.50 349.00 L 393.50 348.00 L 393.50 347.00 L 394.00 346.50 L 394.50 346.00 L 394.50 345.00 L 394.50 344.00 L 394.50 343.00 L 394.50 342.00 L 394.50 341.00 L 394.50 340.00 L 394.50 339.00 L 394.50 338.00 L 395.00 337.50 L 395.50 337.00 L 395.50 336.00 L 395.50 335.00 L 395.50 334.00 L 395.50 333.00 L 395.50 332.00 L 395.50 331.00 L 395.50 330.00 L 395.50 329.00 L 395.50 328.00 L 395.50 327.00 L 395.50 326.00 L 395.50 325.00 L 395.50 324.00 L 395.50 323.00 L 395.50 322.00 L 395.00 321.50 L 394.50 321.00 L 394.50 320.00 L 394.50 319.00 L 394.50 318.00 L 394.50 317.00 L 394.50 316.00 L 394.50 315.00 L 394.50 314.00 L 394.50 313.00 L 394.00 312.50 L 393.50 312.00 L 393.50 311.00 L 393.50 310.00 L 393.50 309.00 L 393.50 308.00 L 393.00 307.50 L 392.50 307.00 L 392.50 306.00 L 392.50 305.00 L 392.50 304.00 L 392.00 303.50 L 391.50 303.00 L 391.50 302.00 L 391.50 301.00 L 391.00 300.50 L 390.50 300.00 L 390.50 299.00 L 390.50 298.00 L 390.00 297.50 L 389.50 297.00 L 389.50 296.00 L 389.00 295.50 L 388.50 295.00 L 388.50 294.00 L 388.50 293.00 L 388.00 292.50 L 387.50 292.00 L 387.50 291.00 L 387.00 290.50 L 386.50 290.00 L 386.50 289.00 L 386.00 288.50 L 385.50 288.00 L 385.50 287.00 L 385.00 286.50 L 384.50 286.00 L 384.50 285.00 L 384.00 284.50 L 383.50 284.00 L 383.00 283.50 L 382.50 283.00 L 382.50 282.00 L 382.00 281.50 L 381.50 281.00 L 381.00 280.50 L 380.50 280.00 L 380.50 279.00 L 380.00 278.50 L 379.50 278.00 L 379.00 277.50 L 378.50 277.00 L 378.00 276.50 L 377.50 276.00 L 377.50 275.00 L 377.00 274.50 L 376.50 274.00 L 376.00 273.50 L 375.50 273.00 L 375.00 272.50 L 374.50 272.00 L 374.50 271.00 L 374.00 270.50 L 373.50 270.00 L 373.00 269.50 L 372.50 269.00 L 372.00 268.50 L 371.50 268.00 L 371.00 267.50 L 370.50 267.00 L 370.00 266.50 L 369.50 266.00 L 369.00 265.50 L 368.50 265.00 L 368.00 264.50 L 367.50 264.00 L 367.00 263.50 L 366.50 263.00 L 366.00 262.50 L 365.50 262.00 L 365.00 261.50 L 364.50 261.00 L 364.00 260.50 L 363.50 260.00 L 363.00 259.50 L 362.00 259.50 L 361.50 259.00 L 361.00 258.50 L 360.50 258.00 L 360.00 257.50 L 359.50 257.00 L 359.00 256.50 L 358.50 256.00 L 358.00 255.50 L 357.00 255.50 L 356.50 255.00 L 356.00 254.50 L 355.50 254.00 L 355.00 253.50 L 354.50 253.00 L 354.00 252.50 L 353.00 252.50 L 352.50 252.00 L 352.00 251.50 L 351.50 251.00 L 351.00 250.50 L 350.50 250.00 L 350.00 249.50 L 349.50 249.00 L 349.00 248.50 L 348.50 248.00 L 348.00 247.50 L 347.50 247.00 L 347.00 246.50 L 346.50 246.00 L 346.50 245.00 L 346.00 244.50 L 345.50 244.00 L 345.50 243.00 L 345.00 242.50 L 344.50 242.00 L 344.50 241.00 L 344.50 240.00 L 344.50 239.00 L 344.00 238.50 L 343.50 238.00 L 343.50 237.00 L 343.50 236.00 L 343.50 235.00 L 343.50 234.00 L 344.00 233.50 L 344.50 233.00 L 344.50 232.00 L 344.50 231.00 L 344.50 230.00 L 345.00 229.50 L 345.50 229.00 L 345.50 228.00 L 346.00 227.50 L 346.50 227.00 L 346.50 226.00 L 347.00 225.50 L 347.50 225.00 L 348.00 224.50 L 348.50 224.00 L 349.00 223.50 L 349.50 223.00 L 350.00 222.50 L 350.50 222.00 L 351.00 221.50 L 351.50 221.00 L 352.00 220.50 L 352.50 220.00 L 353.00 219.50 L 353.50 219.00 L 354.00 218.50 L 354.50 218.00 L 355.00 217.50 L 355.50 217.00 L 355.50 216.00 L 356.00 215.50 L 356.50 215.00 L 357.00 214.50 L 357.50 214.00 L 358.00 213.50 L 358.50 213.00 L 359.00 212.50 L 359.50 212.00 L 360.00 211.50 L 360.50 211.00 L 361.00 210.50 L 361.50 210.00 L 362.00 209.50 L 362.50 209.00 L 363.00 208.50 L 363.50 208.00 L 364.00 207.50 L 364.50 207.00 L 365.00 206.50 L 365.50 206.00 L 366.00 205.50 L 366.50 205.00 L 367.00 204.50 L 367.50 204.00 L 367.50 203.00 L 368.00 202.50 L 368.50 202.00 L 369.00 201.50 L 369.50 201.00 L 370.00 200.50 L 370.50 200.00 L 371.00 199.50 L 371.50 199.00 L 372.00 198.50 L 372.50 198.00 L 373.00 197.50 L 373.50 197.00 L 374.00 196.50 L 374.50 196.00 L 375.00 195.50 L 375.50 195.00 L 376.00 194.50 L 376.50 194.00 L 377.00 193.50 L 377.50 193.00 L 378.00 192.50 L 378.50 192.00 L 379.00 191.50 L 380.00 191.50 L 380.50 191.00 L 381.00 190.50 L 382.00 190.50 L 382.50 190.00 L 383.00 189.50 L 384.00 189.50 L 385.00 189.50 L 386.00 189.50 L 387.00 189.50 L 387.50 189.00 L 388.00 188.50 L 389.00 188.50 L 390.00 188.50 L 391.00 188.50 L 392.00 188.50 L 392.50 189.00 L 393.00 189.50 L 394.00 189.50 L 395.00 189.50 L 396.00 189.50 L 397.00 189.50 L 397.50 190.00 L 398.00 190.50 L 399.00 190.50 L 399.50 191.00 L 400.00 191.50 L 401.00 191.50 L 401.50 192.00 L 402.00 192.50 L 403.00 192.50 L 403.50 193.00 L 404.00 193.50 L 404.50 194.00 L 405.00 194.50 L 406.00 194.50 L 406.50 195.00 L 407.00 195.50 L 407.50 196.00 L 408.00 196.50 L 408.50 197.00 L 409.00 197.50 L 409.50 198.00 L 410.00 198.50 L 411.00 198.50 L 411.50 199.00 L 412.00 199.50 L 412.50 200.00 L 413.00 200.50 L 413.50 201.00 L 414.00 201.50 L 414.50 202.00 L 415.00 202.50 L 415.50 203.00 L 416.00 203.50 L 416.50 204.00 L 417.00 204.50 L 418.00 204.50 L 418.50 205.00 L 419.00 205.50 L 419.50 206.00 L 420.00 206.50 L 420.50 207.00 L 421.00 207.50 L 421.50 208.00 L 422.00 208.50 L 422.50 209.00 L 423.00 209.50 L 423.50 210.00 L 424.00 210.50 L 424.50 211.00 L 425.00 211.50 L 425.50 212.00 L 426.00 212.50 L 426.50 213.00 L 427.00 213.50 L 427.50 214.00 L 428.00 214.50 L 428.50 215.00 L 429.00 215.50 L 429.50 216.00 L 430.00 216.50 L 430.50 217.00 L 430.50 218.00 L 431.00 218.50 L 431.50 219.00 L 432.00 219.50 L 432.50 220.00 L 433.00 220.50 L 433.50 221.00 L 434.00 221.50 L 434.50 222.00 L 435.00 222.50 L 435.50 223.00 L 436.00 223.50 L 436.50 224.00 L 436.50 225.00 L 437.00 225.50 L 437.50 226.00 L 438.00 226.50 L 438.50 227.00 L 439.00 227.50 L 439.50 228.00 L 440.00 228.50 L 440.50 229.00 L 440.50 230.00 L 441.00 230.50 L 441.50 231.00 L 442.00 231.50 L 442.50 232.00 L 443.00 232.50 L 443.50 233.00 L 443.50 234.00 L 444.00 234.50 L 444.50 235.00 L 445.00 235.50 L 445.50 236.00 L 445.50 237.00 L 446.00 237.50 L 446.50 238.00 L 447.00 238.50 L 447.50 239.00 L 447.50 240.00 L 448.00 240.50 L 448.50 241.00 L 449.00 241.50 L 449.50 242.00 L 449.50 243.00 L 450.00 243.50 L 450.50 244.00 L 450.50 245.00 L 451.00 245.50 L 451.50 246.00 L 452.00 246.50 L 452.50 247.00 L 452.50 248.00 L 453.00 248.50 L 453.50 249.00 L 453.50 250.00 L 454.00 250.50 L 454.50 251.00 L 454.50 252.00 L 455.00 252.50 L 455.50 253.00 L 455.50 254.00 L 456.00 254.50 L 456.50 255.00 L 456.50 256.00 L 457.00 256.50 L 457.50 257.00 L 457.50 258.00 L 457.50 259.00 L 458.00 259.50 L 458.50 260.00 L 458.50 261.00 L 459.00 261.50 L 459.50 262.00 L 459.50 263.00 L 460.00 263.50 L 460.50 264.00 L 460.50 265.00 L 460.50 266.00 L 461.00 266.50 L 461.50 267.00 L 461.50 268.00 L 462.00 268.50 L 462.50 269.00 L 462.50 270.00 L 462.50 271.00 L 463.00 271.50 L 463.50 272.00 L 463.50 273.00 L 463.50 274.00 L 464.00 274.50 L 464.50 275.00 L 464.50 276.00 L 464.50 277.00 L 465.00 277.50 L 465.50 278.00 L 465.50 279.00 L 465.50 280.00 L 466.00 280.50 L 466.50 281.00 L 466.50 282.00 L 466.50 283.00 L 467.00 283.50 L 467.50 284.00 L 467.50 285.00 L 467.50 286.00 L 467.50 287.00 L 468.00 287.50 L 468.50 288.00 L 468.50 289.00 L 468.50 290.00 L 468.50 291.00 L 469.00 291.50 L 469.50 292.00 L 469.50 293.00 L 469.50 294.00 L 469.50 295.00 L 469.50 296.00 L 470.00 296.50 L 470.50 297.00 L 470.50 298.00 L 470.50 299.00 L 470.50 300.00 L 470.50 301.00 L 470.50 302.00 L 471.00 302.50 L 471.50 303.00 L 471.50 304.00 L 471.50 305.00 L 471.50 306.00 L 471.50 307.00 L 471.50 308.00 L 471.50 309.00 L 472.00 309.50 L 472.50 310.00 L 472.50 311.00 L 472.50 312.00 L 472.50 313.00 L 472.50 314.00 L 472.50 315.00 L 472.50 316.00 L 472.50 317.00 L 472.50 318.00 L 472.50 319.00 L 472.50 320.00 L 472.50 321.00 L 472.50 322.00 L 473.00 322.50 L 473.50 323.00 L 473.50 324.00 L 473.50 325.00 L 473.50 326.00 L 473.50 327.00 L 473.50 328.00 L 473.50 329.00 L 473.50 330.00 L 473.50 331.00 L 473.50 332.00 L 473.50 333.00 L 473.50 334.00 L 473.50 335.00 L 473.50 336.00 L 473.50 337.00 L 473.50 338.00 L 473.50 339.00 L 473.00 339.50 L 472.50 340.00 L 472.50 341.00 L 472.50 342.00 L 472.50 343.00 L 472.50 344.00 L 472.50 345.00 L 472.50 346.00 L 472.50 347.00 L 472.50 348.00 L 472.50 349.00 L 472.50 350.00 L 472.50 351.00 L 472.00 351.50 L 471.50 352.00 L 471.50 353.00 L 471.50 354.00 L 471.50 355.00 L 471.50 356.00 L 471.50 357.00 L 471.50 358.00 L 471.00 358.50 L 470.50 359.00 L 470.50 360.00 L 470.50 361.00 L 470.50 362.00 L 470.50 363.00 L 470.00 363.50 L 469.50 364.00 L 469.50 365.00 L 469.50 366.00 L 469.50 367.00 L 469.50 368.00 L 469.00 368.50 L 468.50 369.00 L 468.50 370.00 L 468.50 371.00 L 468.50 372.00 L 468.00 372.50 L 467.50 373.00 L 467.50 374.00 L 467.50 375.00 L 467.00 375.50 L 466.50 376.00 L 466.50 377.00 L 466.50 378.00 L 466.50 379.00 L 466.00 379.50 L 465.50 380.00 L 465.50 381.00 L 465.50 382.00 L 465.00 382.50 L 464.50 383.00 L 464.50 384.00 L 464.50 385.00 L 464.00 385.50 L 463.50 386.00 L 463.50 387.00 L 463.00 387.50 L 462.50 388.00 L 462.50 389.00 L 462.50 390.00 L 462.00 390.50 L 461.50 391.00 L 461.50 392.00 L 461.50 393.00 L 461.00 393.50 L 460.50 394.00 L 460.50 395.00 L 460.00 395.50 L 459.50 396.00 L 459.50 397.00 L 459.00 397.50 L 458.50 398.00 L 458.50 399.00 L 458.50 400.00 L 458.00 400.50 L 457.50 401.00 L 457.50 402.00 L 457.00 402.50 L 456.50 403.00 L 456.50 404.00 L 456.00 404.50 L 455.50 405.00 L 455.50 406.00 L 455.00 406.50 L 454.50 407.00 L 454.50 408.00 L 454.00 408.50 L 453.50 409.00 L 453.50 410.00 L 453.00 410.50 L 452.50 411.00 L 452.50 412.00 L 452.00 412.50 L 451.50 413.00 L 451.50 414.00 L 451.00 414.50 L 450.50 415.00 L 450.00 415.50 L 449.50 416.00 L 449.50 417.00 L 449.00 417.50 L 448.50 418.00 L 448.50 419.00 L 448.00 419.50 L 447.50 420.00 L 447.00 420.50 L 446.50 421.00 L 446.50 422.00 L 446.00 422.50 L 445.50 423.00 L 445.00 423.50 L 444.50 424.00 L 444.50 425.00 L 444.00 425.50 L 443.50 426.00 L 443.00 426.50 L 442.50 427.00 L 442.50 428.00 L 442.00 428.50 L 441.50 429.00 L 441.00 429.50 L 440.50 430.00 L 440.50 431.00 L 440.00 431.50 L 439.50 432.00 L 439.00 432.50 L 438.50 433.00 L 438.00 433.50 L 437.50 434.00 L 437.00 434.50 L 436.50 435.00 L 436.50 436.00 L 436.00 436.50 L 435.50 437.00 L 435.00 437.50 L 434.50 438.00 L 434.00 438.50 L 433.50 439.00 L 433.00 439.50 L 432.50 440.00 L 432.50 441.00 L 432.00 441.50 L 431.50 442.00 L 431.00 442.50 L 430.50 443.00 L 430.00 443.50 L 429.50 444.00 L 429.00 444.50 L 428.50 445.00 L 428.00 445.50 L 427.50 446.00 L 427.00 446.50 L 426.50 447.00 L 426.00 447.50 L 425.50 448.00 L 425.00 448.50 L 424.50 449.00 L 424.00 449.50 L 423.50 450.00 L 423.00 450.50 L 422.50 451.00 L 422.00 451.50 L 421.50 452.00 L 421.00 452.50 L 420.50 453.00 L 420.00 453.50 L 419.50 454.00 L 419.00 454.50 L 418.50 455.00 L 418.00 455.50 L 417.50 456.00 L 417.00 456.50 L 416.00 456.50 L 415.50 457.00 L 415.00 457.50 L 414.50 458.00 L 414.00 458.50 L 413.50 459.00 L 413.00 459.50 L 412.50 460.00 L 412.00 460.50 L 411.50 461.00 L 411.00 461.50 L 410.50 462.00 L 410.00 462.50 L 409.00 462.50 L 408.50 463.00 L 408.00 463.50 L 407.50 464.00 L 407.00 464.50 L 406.50 465.00 L 406.00 465.50 L 405.50 466.00 L 405.00 466.50 L 404.00 466.50 L 403.50 467.00 L 403.00 467.50 L 402.50 468.00 L 402.00 468.50 L 401.00 468.50 L 400.50 469.00 L 400.00 469.50 L 399.50 470.00 L 399.00 470.50 L 398.50 471.00 L 398.00 471.50 L 397.00 471.50 L 396.50 472.00 L 396.00 472.50 L 395.50 473.00 L 395.00 473.50 L 394.00 473.50 L 393.50 474.00 L 393.00 474.50 L 392.50 475.00 L 392.00 475.50 L 391.00 475.50 L 390.50 476.00 L 390.00 476.50 L 389.00 476.50 L 388.50 477.00 L 388.00 477.50 L 387.50 478.00 L 387.00 478.50 L 386.00 478.50 L 385.50 479.00 L 385.00 479.50 L 384.00 479.50 L 383.50 480.00 L 383.00 480.50 L 382.00 480.50 L 381.50 481.00 L 381.00 481.50 L 380.00 481.50 L 379.50 482.00 L 379.00 482.50 L 378.00 482.50 L 377.50 483.00 L 377.00 483.50 L 376.00 483.50 L 375.50 484.00 L 375.00 484.50 L 374.00 484.50 L 373.50 485.00 L 373.00 485.50 L 372.00 485.50 L 371.50 486.00 L 371.00 486.50 L 370.00 486.50 L 369.50 487.00 L 369.00 487.50 L 368.00 487.50 L 367.00 487.50 L 366.50 488.00 L 366.00 488.50 L 365.00 488.50 L 364.00 488.50 L 363.50 489.00 L 363.00 489.50 L 362.00 489.50 L 361.50 490.00 L 361.00 490.50 L 360.00 490.50 L 359.00 490.50 L 358.50 491.00 L 358.00 491.50 L 357.00 491.50 L 356.00 491.50 L 355.50 492.00 L 355.00 492.50 L 354.00 492.50 L 353.00 492.50 L 352.50 493.00 L 352.00 493.50 L 351.00 493.50 L 350.00 493.50 L 349.50 494.00 L 349.00 494.50 L 348.00 494.50 L 347.00 494.50 L 346.00 494.50 L 345.50 495.00 L 345.00 495.50 L 344.00 495.50 L 343.00 495.50 L 342.50 496.00 L 342.00 496.50 L 341.00 496.50 L 340.00 496.50 L 339.00 496.50 L 338.50 497.00 L 338.00 497.50 L 337.00 497.50 L 336.00 497.50 L 335.00 497.50 L 334.50 498.00 L 334.00 498.50 L 333.00 498.50 L 332.00 498.50 L 331.00 498.50 L 330.00 498.50 L 329.50 499.00 L 329.00 499.50 L 328.00 499.50 L 327.00 499.50 L 326.00 499.50 L 325.00 499.50 L 324.50 500.00 L 324.00 500.50 L 323.00 500.50 L 322.00 500.50 L 321.00 500.50 L 320.00 500.50 L 319.00 500.50 L 318.00 500.50 L 317.00 500.50 L 316.50 501.00 L 316.00 501.50 L 315.00 501.50 L 314.00 501.50 L 313.00 501.50 L 312.00 501.50 L 311.00 501.50 L 310.00 501.50 L 309.00 501.50 L 308.00 501.50 L 307.00 501.50 L 306.00 501.50 L 305.50 502.00 L 305.00 502.50 Z" fill="#ece8cf"/>
</svg>