<svg xmlns="http://www.w3.org/2000/svg" viewBox="0 0 686 686">
<path d="M184.00,472.50 L183.00,472.50 L182.00,472.50 L181.00,472.50 L180.00,472.50 L179.00,472.50 L178.00,472.50 L177.00,472.50 L176.00,472.50 L175.50,472.00 L175.00,471.50 L174.00,471.50 L173.00,471.50 L172.50,471.00 L172.00,470.50 L171.00,470.50 L170.50,470.00 L170.00,469.50 L169.00,469.50 L168.50,469.00 L168.00,468.50 L167.00,468.50 L166.50,468.00 L166.00,467.50 L165.00,467.50 L164.50,467.00 L164.00,466.50 L163.50,466.00 L163.00,465.50 L162.00,465.50 L161.50,465.00 L161.00,464.50 L160.50,464.00 L160.00,463.50 L159.00,463.50 L158.50,463.00 L158.00,462.50 L157.50,462.00 L157.00,461.50 L156.50,461.00 L156.00,460.50 L155.00,460.50 L154.50,460.00 L154.00,459.50 L153.50,459.00 L153.00,458.50 L152.50,458.00 L152.00,457.50 L151.00,457.50 L150.50,457.00 L150.00,456.50 L149.50,456.00 L149.00,455.50 L148.50,455.00 L148.00,454.50 L147.50,454.00 L147.00,453.50 L146.50,453.00 L146.00,452.50 L145.50,452.00 L145.00,451.50 L144.00,451.50 L143.50,451.00 L143.00,450.50 L142.50,450.00 L142.00,449.50 L141.50,449.00 L141.00,448.50 L140.50,448.00 L140.00,447.50 L139.50,447.00 L139.00,446.50 L138.50,446.00 L138.00,445.50 L137.50,445.00 L137.00,444.50 L136.50,444.00 L136.00,443.50 L135.50,443.00 L135.00,442.50 L134.50,442.00 L134.00,441.50 L133.50,441.00 L133.00,440.50 L132.50,440.00 L132.00,439.50 L131.50,439.00 L131.00,438.50 L130.50,438.00 L130.00,437.50 L129.50,437.00 L129.00,436.50 L128.50,436.00 L128.00,435.50 L127.50,435.00 L127.00,434.50 L126.50,434.00 L126.00,433.50 L125.50,433.00 L125.00,432.50 L124.50,432.00 L124.00,431.50 L123.50,431.00 L123.00,430.50 L122.50,430.00 L122.00,429.50 L121.50,429.00 L121.50,428.00 L121.00,427.50 L120.50,427.00 L120.00,426.50 L119.50,426.00 L119.00,425.50 L118.50,425.00 L118.00,424.50 L117.50,424.00 L117.00,423.50 L116.50,423.00 L116.50,422.00 L116.00,421.50 L115.50,421.00 L115.00,420.50 L114.50,420.00 L114.00,419.50 L113.50,419.00 L113.00,418.50 L112.50,418.00 L112.50,417.00 L112.00,416.50 L111.50,416.00 L111.00,415.50 L110.50,415.00 L110.00,414.50 L109.50,414.00 L109.50,413.00 L109.00,412.50 L108.50,412.00 L108.00,411.50 L107.50,411.00 L107.00,410.50 L106.50,410.00 L106.50,409.00 L106.00,408.50 L105.50,408.00 L105.00,407.50 L104.50,407.00 L104.50,406.00 L104.00,405.50 L103.50,405.00 L103.00,404.50 L102.50,404.00 L102.50,403.00 L102.00,402.50 L101.50,402.00 L101.00,401.50 L100.50,401.00 L100.50,400.00 L100.00,399.50 L99.50,399.00 L99.00,398.50 L98.50,398.00 L98.50,397.00 L98.00,396.50 L97.50,396.00 L97.50,395.00 L97.00,394.50 L96.50,394.00 L96.00,393.50 L95.50,393.00 L95.50,392.00 L95.00,391.50 L94.50,391.00 L94.50,390.00 L94.00,389.50 L93.50,389.00 L93.50,388.00 L93.00,387.50 L92.50,387.00 L92.50,386.00 L92.00,385.50 L91.50,385.00 L91.00,384.50 L90.50,384.00 L90.50,383.00 L90.00,382.50 L89.50,382.00 L89.50,381.00 L89.00,380.50 L88.50,380.00 L88.50,379.00 L88.00,378.50 L87.50,378.00 L87.50,377.00 L87.00,376.50 L86.50,376.00 L86.50,375.00 L86.00,374.50 L85.50,374.00 L85.50,373.00 L85.00,372.50 L84.50,372.00 L84.50,371.00 L84.50,370.00 L84.00,369.50 L83.50,369.00 L83.50,368.00 L83.00,367.50 L82.50,367.00 L82.50,366.00 L82.00,365.50 L81.50,365.00 L81.50,364.00 L81.50,363.00 L81.00,362.50 L80.50,362.00 L80.50,361.00 L80.00,360.50 L79.50,360.00 L79.50,359.00 L79.50,358.00 L79.00,357.50 L78.50,357.00 L78.50,356.00 L78.00,355.50 L77.50,355.00 L77.50,354.00 L77.50,353.00 L77.00,352.50 L76.50,352.00 L76.50,351.00 L76.50,350.00 L76.00,349.50 L75.50,349.00 L75.50,348.00 L75.50,347.00 L75.00,346.50 L74.50,346.00 L74.50,345.00 L74.50,344.00 L74.00,343.50 L73.50,343.00 L73.50,342.00 L73.50,341.00 L73.50,340.00 L73.00,339.50 L72.50,339.00 L72.50,338.00 L72.50,337.00 L72.50,336.00 L72.00,335.50 L71.50,335.00 L71.50,334.00 L71.50,333.00 L71.50,332.00 L71.00,331.50 L70.50,331.00 L70.50,330.00 L70.50,329.00 L70.50,328.00 L70.00,327.50 L69.50,327.00 L69.50,326.00 L69.50,325.00 L69.50,324.00 L69.50,323.00 L69.00,322.50 L68.50,322.00 L68.50,321.00 L68.50,320.00 L68.50,319.00 L68.50,318.00 L68.00,317.50 L67.50,317.00 L67.50,316.00 L67.50,315.00 L67.50,314.00 L67.50,313.00 L67.50,312.00 L67.00,311.50 L66.50,311.00 L66.50,310.00 L66.50,309.00 L66.50,308.00 L66.50,307.00 L66.50,306.00 L66.50,305.00 L66.00,304.50 L65.50,304.00 L65.50,303.00 L65.50,302.00 L65.50,301.00 L65.50,300.00 L65.50,299.00 L65.50,298.00 L65.50,297.00 L65.50,296.00 L65.50,295.00 L65.50,294.00 L65.00,293.50 L64.50,293.00 L64.50,292.00 L64.50,291.00 L64.50,290.00 L64.50,289.00 L64.50,288.00 L64.50,287.00 L64.50,286.00 L64.50,285.00 L64.50,284.00 L64.50,283.00 L64.50,282.00 L64.50,281.00 L64.50,280.00 L64.50,279.00 L64.50,278.00 L64.50,277.00 L64.50,276.00 L64.50,275.00 L64.50,274.00 L64.50,273.00 L64.50,272.00 L64.50,271.00 L64.50,270.00 L64.50,269.00 L64.50,268.00 L64.50,267.00 L64.50,266.00 L64.50,265.00 L64.50,264.00 L64.50,263.00 L64.50,262.00 L64.50,261.00 L64.50,260.00 L64.50,259.00 L64.50,258.00 L65.00,257.50 L65.50,257.00 L65.50,256.00 L65.50,255.00 L65.50,254.00 L65.50,253.00 L65.50,252.00 L65.50,251.00 L65.50,250.00 L65.50,249.00 L65.50,248.00 L65.50,247.00 L66.00,246.50 L66.50,246.00 L66.50,245.00 L66.50,244.00 L66.50,243.00 L66.50,242.00 L66.50,241.00 L66.50,240.00 L67.00,239.50 L67.50,239.00 L67.50,238.00 L67.50,237.00 L67.50,236.00 L67.50,235.00 L67.50,234.00 L68.00,233.50 L68.50,233.00 L68.50,232.00 L68.50,231.00 L68.50,230.00 L68.50,229.00 L69.00,228.50 L69.50,228.00 L69.50,227.00 L69.50,226.00 L69.50,225.00 L69.50,224.00 L70.00,223.50 L70.50,223.00 L70.50,222.00 L70.50,221.00 L70.50,220.00 L71.00,219.50 L71.50,219.00 L71.50,218.00 L71.50,217.00 L71.50,216.00 L72.00,215.50 L72.50,215.00 L72.50,214.00 L72.50,213.00 L72.50,212.00 L73.00,211.50 L73.50,211.00 L73.50,210.00 L73.50,209.00 L74.00,208.50 L74.50,208.00 L74.50,207.00 L74.50,206.00 L74.50,205.00 L75.00,204.50 L75.50,204.00 L75.50,203.00 L75.50,202.00 L76.00,201.50 L76.50,201.00 L76.50,200.00 L77.00,199.50 L77.50,199.00 L77.50,198.00 L77.50,197.00 L78.00,196.50 L78.50,196.00 L78.50,195.00 L78.50,194.00 L79.00,193.50 L79.50,193.00 L79.50,192.00 L80.00,191.50 L80.50,191.00 L80.50,190.00 L80.50,189.00 L81.00,188.50 L81.50,188.00 L81.50,187.00 L82.00,186.50 L82.50,186.00 L82.50,185.00 L83.00,184.50 L83.50,184.00 L83.50,183.00 L83.50,182.00 L84.00,181.50 L84.50,181.00 L84.50,180.00 L85.00,179.50 L85.50,179.00 L85.50,178.00 L86.00,177.50 L86.50,177.00 L86.50,176.00 L87.00,175.50 L87.50,175.00 L87.50,174.00 L88.00,173.50 L88.50,173.00 L88.50,172.00 L89.00,171.50 L89.50,171.00 L89.50,170.00 L90.00,169.50 L90.50,169.00 L90.50,168.00 L91.00,167.50 L91.50,167.00 L92.00,166.50 L92.50,166.00 L92.50,165.00 L93.00,164.50 L93.50,164.00 L93.50,163.00 L94.00,162.50 L94.50,162.00 L94.50,161.00 L95.00,160.50 L95.50,160.00 L96.00,159.50 L96.50,159.00 L96.50,158.00 L97.00,157.50 L97.50,157.00 L97.50,156.00 L98.00,155.50 L98.50,155.00 L99.00,154.50 L99.50,154.00 L99.50,153.00 L100.00,152.50 L100.50,152.00 L101.00,151.50 L101.50,151.00 L101.50,150.00 L102.00,149.50 L102.50,149.00 L103.00,148.50 L103.50,148.00 L103.50,147.00 L104.00,146.50 L104.50,146.00 L105.00,145.50 L105.50,145.00 L106.00,144.50 L106.50,144.00 L106.50,143.00 L107.00,142.50 L107.50,142.00 L108.00,141.50 L108.50,141.00 L108.50,140.00 L109.00,139.50 L109.50,139.00 L110.00,138.50 L110.50,138.00 L111.00,137.50 L111.50,137.00 L112.00,136.50 L112.50,136.00 L112.50,135.00 L113.00,134.50 L113.50,134.00 L114.00,133.50 L114.50,133.00 L115.00,132.50 L115.50,132.00 L116.00,131.50 L116.50,131.00 L116.50,130.00 L117.00,129.50 L117.50,129.00 L118.00,128.50 L118.50,128.00 L119.00,127.50 L119.50,127.00 L120.00,126.50 L120.50,126.00 L121.00,125.50 L121.50,125.00 L122.00,124.50 L122.50,124.00 L122.50,123.00 L123.00,122.50 L123.50,122.00 L124.00,121.50 L124.50,121.00 L125.00,120.50 L125.50,120.00 L126.00,119.50 L126.50,119.00 L127.00,118.50 L127.50,118.00 L128.00,117.50 L128.50,117.00 L129.00,116.50 L129.50,116.00 L130.00,115.50 L130.50,115.00 L131.00,114.50 L131.50,114.00 L132.00,113.50 L132.50,113.00 L133.00,112.50 L133.50,112.00 L134.00,111.50 L134.50,111.00 L135.00,110.50 L135.50,110.00 L136.00,109.50 L136.50,109.00 L137.00,108.50 L137.50,108.00 L138.00,107.50 L138.50,107.00 L139.00,106.50 L139.50,106.00 L140.00,105.50 L140.50,105.00 L141.00,104.50 L141.50,104.00 L142.00,103.50 L142.50,103.00 L143.00,102.50 L143.50,102.00 L144.00,101.50 L144.50,101.00 L145.00,100.50 L145.50,100.00 L146.00,99.50 L147.00,99.50 L147.50,99.00 L148.00,98.50 L148.50,98.00 L149.00,97.50 L149.50,97.00 L150.00,96.50 L150.50,96.00 L151.00,95.50 L151.50,95.00 L152.00,94.50 L152.50,94.00 L153.00,93.50 L154.00,93.50 L154.50,93.00 L155.00,92.50 L155.50,92.00 L156.00,91.50 L156.50,91.00 L157.00,90.50 L157.50,90.00 L158.00,89.50 L159.00,89.50 L159.50,89.00 L160.00,88.50 L160.50,88.00 L161.00,87.50 L161.50,87.00 L162.00,86.50 L162.50,86.00 L163.00,85.50 L164.00,85.50 L164.50,85.00 L165.00,84.50 L165.50,84.00 L166.00,83.50 L167.00,83.50 L167.50,83.00 L168.00,82.50 L168.50,82.00 L169.00,81.50 L169.50,81.00 L170.00,80.50 L171.00,80.50 L171.50,80.00 L172.00,79.50 L172.50,79.00 L173.00,78.50 L174.00,78.50 L174.50,78.00 L175.00,77.50 L175.50,77.00 L176.00,76.50 L177.00,76.50 L177.50,76.00 L178.00,75.50 L178.50,75.00 L179.00,74.50 L180.00,74.50 L180.50,74.00 L181.00,73.50 L181.50,73.00 L182.00,72.50 L183.00,72.50 L183.50,72.00 L184.00,71.50 L185.00,71.50 L185.50,71.00 L186.00,70.50 L187.00,70.50 L187.50,70.00 L188.00,69.50 L188.50,69.00 L189.00,68.50 L190.00,68.50 L190.50,68.00 L191.00,67.50 L192.00,67.50 L192.50,67.00 L193.00,66.50 L194.00,66.50 L194.50,66.00 L195.00,65.50 L196.00,65.50 L196.50,65.00 L197.00,64.50 L197.50,64.00 L198.00,63.50 L199.00,63.50 L199.50,63.00 L200.00,62.50 L201.00,62.50 L201.50,62.00 L202.00,61.50 L203.00,61.50 L203.50,61.00 L204.00,60.50 L205.00,60.50 L205.50,60.00 L206.00,59.50 L207.00,59.50 L207.50,59.00 L208.00,58.50 L209.00,58.50 L209.50,58.00 L210.00,57.50 L211.00,57.50 L211.50,57.00 L212.00,56.50 L213.00,56.50 L214.00,56.50 L214.50,56.00 L215.00,55.50 L216.00,55.50 L216.50,55.00 L217.00,54.50 L218.00,54.50 L218.50,54.00 L219.00,53.50 L220.00,53.50 L221.00,53.50 L221.50,53.00 L222.00,52.50 L223.00,52.50 L223.50,52.00 L224.00,51.50 L225.00,51.50 L226.00,51.50 L226.50,51.00 L227.00,50.50 L228.00,50.50 L229.00,50.50 L229.50,50.00 L230.00,49.50 L231.00,49.50 L232.00,49.50 L232.50,49.00 L233.00,48.50 L234.00,48.50 L234.50,48.00 L235.00,47.50 L236.00,47.50 L237.00,47.50 L237.50,47.00 L238.00,46.50 L239.00,46.50 L240.00,46.50 L240.50,46.00 L241.00,45.50 L242.00,45.50 L243.00,45.50 L243.50,45.00 L244.00,44.50 L245.00,44.50 L246.00,44.50 L247.00,44.50 L247.50,44.00 L248.00,43.50 L249.00,43.50 L250.00,43.50 L250.50,43.00 L251.00,42.50 L252.00,42.50 L253.00,42.50 L254.00,42.50 L254.50,42.00 L255.00,41.50 L256.00,41.50 L257.00,41.50 L258.00,41.50 L258.50,41.00 L259.00,40.50 L260.00,40.50 L261.00,40.50 L262.00,40.50 L262.50,40.00 L263.00,39.50 L264.00,39.50 L265.00,39.50 L266.00,39.50 L267.00,39.50 L267.50,39.00 L268.00,38.50 L269.00,38.50 L270.00,38.50 L271.00,38.50 L272.00,38.50 L272.50,38.00 L273.00,37.50 L274.00,37.50 L275.00,37.50 L276.00,37.50 L277.00,37.50 L278.00,37.50 L278.50,37.00 L279.00,36.50 L280.00,36.50 L281.00,36.50 L282.00,36.50 L283.00,36.50 L284.00,36.50 L284.50,36.00 L285.00,35.50 L286.00,35.50 L287.00,35.50 L288.00,35.50 L289.00,35.50 L290.00,35.50 L291.00,35.50 L292.00,35.50 L293.00,35.50 L293.50,35.00 L294.00,34.50 L295.00,34.50 L296.00,34.50 L297.00,34.50 L298.00,34.50 L299.00,34.50 L300.00,34.50 L301.00,34.50 L302.00,34.50 L303.00,34.50 L304.00,34.50 L305.00,34.50 L305.50,34.00 L306.00,33.50 L307.00,33.50 L308.00,33.50 L309.00,33.50 L310.00,33.50 L311.00,33.50 L312.00,33.50 L313.00,33.50 L314.00,33.50 L315.00,33.50 L316.00,33.50 L317.00,33.50 L318.00,33.50 L319.00,33.50 L320.00,33.50 L321.00,33.50 L322.00,33.50 L323.00,33.50 L324.00,33.50 L325.00,33.50 L326.00,33.50 L327.00,33.50 L327.50,34.00 L328.00,34.50 L328.50,34.00 L329.00,33.50 L329.50,34.00 L330.00,34.50 L331.00,34.50 L332.00,34.50 L333.00,34.50 L334.00,34.50 L335.00,34.50 L336.00,34.50 L337.00,34.50 L338.00,34.50 L339.00,34.50 L340.00,34.50 L341.00,34.50 L342.00,34.50 L343.00,34.50 L343.50,35.00 L344.00,35.50 L345.00,35.50 L346.00,35.50 L347.00,35.50 L348.00,35.50 L349.00,35.50 L350.00,35.50 L351.00,35.50 L352.00,35.50 L352.50,36.00 L353.00,36.50 L354.00,36.50 L355.00,36.50 L356.00,36.50 L357.00,36.50 L358.00,36.50 L359.00,36.50 L359.50,37.00 L360.00,37.50 L361.00,37.50 L362.00,37.50 L363.00,37.50 L364.00,37.50 L365.00,37.50 L365.50,38.00 L366.00,38.50 L367.00,38.50 L368.00,38.50 L369.00,38.50 L370.00,38.50 L371.00,38.50 L371.50,39.00 L372.00,39.50 L373.00,39.50 L374.00,39.50 L375.00,39.50 L375.50,40.00 L376.00,40.50 L377.00,40.50 L378.00,40.50 L379.00,40.50 L380.00,40.50 L380.50,41.00 L381.00,41.50 L382.00,41.50 L383.00,41.50 L384.00,41.50 L384.50,42.00 L385.00,42.50 L386.00,42.50 L387.00,42.50 L388.00,42.50 L388.50,43.00 L389.00,43.50 L390.00,43.50 L391.00,43.50 L392.00,43.50 L392.50,44.00 L393.00,44.50 L394.00,44.50 L395.00,44.50 L395.50,45.00 L396.00,45.50 L397.00,45.50 L398.00,45.50 L398.50,46.00 L399.00,46.50 L400.00,46.50 L401.00,46.50 L401.50,47.00 L402.00,47.50 L403.00,47.50 L404.00,47.50 L404.50,48.00 L405.00,48.50 L406.00,48.50 L407.00,48.50 L407.50,49.00 L408.00,49.50 L409.00,49.50 L410.00,49.50 L410.50,50.00 L411.00,50.50 L412.00,50.50 L413.00,50.50 L413.50,51.00 L414.00,51.50 L415.00,51.50 L415.50,52.00 L416.00,52.50 L417.00,52.50 L418.00,52.50 L418.50,53.00 L419.00,53.50 L420.00,53.50 L420.50,54.00 L421.00,54.50 L422.00,54.50 L423.00,54.50 L423.50,55.00 L424.00,55.50 L425.00,55.50 L425.50,56.00 L426.00,56.50 L427.00,56.50 L427.50,57.00 L428.00,57.50 L429.00,57.50 L429.50,58.00 L430.00,58.50 L431.00,58.50 L432.00,58.50 L432.50,59.00 L433.00,59.50 L434.00,59.50 L434.50,60.00 L435.00,60.50 L436.00,60.50 L436.50,61.00 L437.00,61.50 L438.00,61.50 L438.50,62.00 L439.00,62.50 L440.00,62.50 L440.50,63.00 L441.00,63.50 L441.50,64.00 L442.00,64.50 L443.00,64.50 L443.50,65.00 L444.00,65.50 L445.00,65.50 L445.50,66.00 L446.00,66.50 L447.00,66.50 L447.50,67.00 L448.00,67.50 L449.00,67.50 L449.50,68.00 L450.00,68.50 L451.00,68.50 L451.50,69.00 L452.00,69.50 L452.50,70.00 L453.00,70.50 L454.00,70.50 L454.50,71.00 L455.00,71.50 L455.50,72.00 L456.00,72.50 L457.00,72.50 L457.50,73.00 L458.00,73.50 L459.00,73.50 L459.50,74.00 L460.00,74.50 L460.50,75.00 L461.00,75.50 L462.00,75.50 L462.50,76.00 L463.00,76.50 L463.50,77.00 L464.00,77.50 L465.00,77.50 L465.50,78.00 L466.00,78.50 L466.50,79.00 L467.00,79.50 L468.00,79.50 L468.50,80.00 L469.00,80.50 L469.50,81.00 L470.00,81.50 L471.00,81.50 L471.50,82.00 L472.00,82.50 L472.50,83.00 L473.00,83.50 L473.50,84.00 L474.00,84.50 L475.00,84.50 L475.50,85.00 L476.00,85.50 L476.50,86.00 L477.00,86.50 L477.50,87.00 L478.00,87.50 L478.50,88.00 L479.00,88.50 L479.50,89.00 L480.00,89.50 L480.50,90.00 L481.00,90.50 L481.50,91.00 L481.50,92.00 L482.00,92.50 L482.50,93.00 L483.00,93.50 L483.50,94.00 L483.50,95.00 L483.50,96.00 L484.00,96.50 L484.50,97.00 L484.50,98.00 L484.50,99.00 L484.50,100.00 L485.00,100.50 L485.50,101.00 L485.50,102.00 L485.50,103.00 L485.50,104.00 L485.50,105.00 L485.50,106.00 L485.00,106.50 L484.50,107.00 L484.50,108.00 L484.50,109.00 L484.50,110.00 L484.50,111.00 L484.00,111.50 L483.50,112.00 L483.50,113.00 L483.00,113.50 L482.50,114.00 L482.50,115.00 L482.00,115.50 L481.50,116.00 L481.00,116.50 L480.50,117.00 L480.50,118.00 L480.00,118.50 L479.50,119.00 L479.00,119.50 L478.50,120.00 L478.00,120.50 L477.50,121.00 L477.00,121.50 L476.50,122.00 L476.00,122.50 L475.50,123.00 L475.00,123.50 L474.50,124.00 L474.00,124.50 L473.50,125.00 L473.00,125.50 L472.50,126.00 L472.00,126.50 L471.50,127.00 L471.00,127.50 L470.50,128.00 L470.00,128.50 L469.50,129.00 L469.00,129.50 L468.50,130.00 L468.00,130.50 L467.50,131.00 L467.00,131.50 L466.50,132.00 L466.00,132.50 L465.50,133.00 L465.00,133.50 L464.50,134.00 L464.00,134.50 L463.50,135.00 L463.00,135.50 L462.50,136.00 L462.00,136.50 L461.50,137.00 L461.00,137.50 L460.50,138.00 L460.00,138.50 L459.50,139.00 L459.00,139.50 L458.50,140.00 L458.00,140.50 L457.50,141.00 L457.00,141.50 L456.50,142.00 L456.00,142.50 L455.50,143.00 L455.50,144.00 L455.00,144.50 L454.00,144.50 L453.50,145.00 L453.50,146.00 L453.00,146.50 L452.50,147.00 L452.00,147.50 L451.50,148.00 L451.00,148.50 L450.50,149.00 L450.00,149.50 L449.50,150.00 L449.00,150.50 L448.50,151.00 L448.00,151.50 L447.50,152.00 L447.00,152.50 L446.50,153.00 L446.00,153.50 L445.50,154.00 L445.00,154.50 L444.50,155.00 L444.00,155.50 L443.50,156.00 L443.00,156.50 L442.50,157.00 L442.00,157.50 L441.50,158.00 L441.00,158.50 L440.50,159.00 L440.00,159.50 L439.50,160.00 L439.00,160.50 L438.50,161.00 L438.00,161.50 L437.50,162.00 L437.00,162.50 L436.50,163.00 L436.00,163.50 L435.50,164.00 L435.00,164.50 L434.00,164.50 L433.50,165.00 L433.00,165.50 L432.50,166.00 L432.00,166.50 L431.50,167.00 L431.00,167.50 L430.00,167.50 L429.50,168.00 L429.00,168.50 L428.00,168.50 L427.50,169.00 L427.00,169.50 L426.00,169.50 L425.50,170.00 L425.00,170.50 L424.00,170.50 L423.00,170.50 L422.50,171.00 L422.00,171.50 L421.00,171.50 L420.00,171.50 L419.00,171.50 L418.00,171.50 L417.50,171.00 L417.00,170.50 L416.00,170.50 L415.00,170.50 L414.00,170.50 L413.00,170.50 L412.50,170.00 L412.00,169.50 L411.00,169.50 L410.50,169.00 L410.00,168.50 L409.00,168.50 L408.50,168.00 L408.00,167.50 L407.00,167.50 L406.50,167.00 L406.00,166.50 L405.00,166.50 L404.50,166.00 L404.00,165.50 L403.50,165.00 L403.00,164.50 L402.00,164.50 L401.50,164.00 L401.00,163.50 L400.00,163.50 L399.50,163.00 L399.00,162.50 L398.50,162.00 L398.00,161.50 L397.00,161.50 L396.50,161.00 L396.00,160.50 L395.00,160.50 L394.50,160.00 L394.00,159.50 L393.00,159.50 L392.50,159.00 L392.00,158.50 L391.00,158.50 L390.50,158.00 L390.00,157.50 L389.00,157.50 L388.50,157.00 L388.00,156.50 L387.00,156.50 L386.50,156.00 L386.00,155.50 L385.00,155.50 L384.50,155.00 L384.00,154.50 L383.00,154.50 L382.00,154.50 L381.50,154.00 L381.00,153.50 L380.00,153.50 L379.50,153.00 L379.00,152.50 L378.00,152.50 L377.50,152.00 L377.00,151.50 L376.00,151.50 L375.00,151.50 L374.50,151.00 L374.00,150.50 L373.00,150.50 L372.50,150.00 L372.00,149.50 L371.00,149.50 L370.00,149.50 L369.50,149.00 L369.00,148.50 L368.00,148.50 L367.00,148.50 L366.50,148.00 L366.00,147.50 L365.00,147.50 L364.00,147.50 L363.50,147.00 L363.00,146.50 L362.00,146.50 L361.00,146.50 L360.50,146.00 L360.00,145.50 L359.00,145.50 L358.00,145.50 L357.00,145.50 L356.50,145.00 L356.00,144.50 L355.00,144.50 L354.00,144.50 L353.50,144.00 L353.00,143.50 L352.00,143.50 L351.00,143.50 L350.00,143.50 L349.00,143.50 L348.50,143.00 L348.00,142.50 L347.00,142.50 L346.00,142.50 L345.00,142.50 L344.00,142.50 L343.00,142.50 L342.50,142.00 L342.00,141.50 L341.00,141.50 L340.00,141.50 L339.00,141.50 L338.00,141.50 L337.00,141.50 L336.00,141.50 L335.00,141.50 L334.50,141.00 L334.00,140.50 L333.00,140.50 L332.00,140.50 L331.00,140.50 L330.00,140.50 L329.00,140.50 L328.00,140.50 L327.00,140.50 L326.00,140.50 L325.00,140.50 L324.00,140.50 L323.00,140.50 L322.00,140.50 L321.00,140.50 L320.00,140.50 L319.00,140.50 L318.00,140.50 L317.00,140.50 L316.00,140.50 L315.00,140.50 L314.00,140.50 L313.00,140.50 L312.00,140.50 L311.00,140.50 L310.50,141.00 L310.00,141.50 L309.00,141.50 L308.00,141.50 L307.00,141.50 L306.00,141.50 L305.00,141.50 L304.00,141.50 L303.00,141.50 L302.00,141.50 L301.50,142.00 L301.00,142.50 L300.00,142.50 L299.00,142.50 L298.00,142.50 L297.00,142.50 L296.50,143.00 L296.00,143.50 L295.00,143.50 L294.00,143.50 L293.00,143.50 L292.50,144.00 L292.00,144.50 L291.00,144.50 L290.00,144.50 L289.00,144.50 L288.50,145.00 L288.00,145.50 L287.00,145.50 L286.00,145.50 L285.00,145.50 L284.50,146.00 L284.00,146.50 L283.00,146.50 L282.00,146.50 L281.50,147.00 L281.00,147.50 L280.00,147.50 L279.00,147.50 L278.50,148.00 L278.00,148.50 L277.00,148.50 L276.00,148.50 L275.50,149.00 L275.00,149.50 L274.00,149.50 L273.50,150.00 L273.00,150.50 L272.00,150.50 L271.00,150.50 L270.50,151.00 L270.00,151.50 L269.00,151.50 L268.00,151.50 L267.50,152.00 L267.00,152.50 L266.00,152.50 L265.50,153.00 L265.00,153.50 L264.00,153.50 L263.50,154.00 L263.00,154.50 L262.00,154.50 L261.50,155.00 L261.00,155.50 L260.00,155.50 L259.50,156.00 L259.00,156.50 L258.50,157.00 L258.00,157.50 L257.00,157.50 L256.50,158.00 L256.00,158.50 L255.00,158.50 L254.50,159.00 L254.00,159.50 L253.00,159.50 L252.50,160.00 L252.00,160.50 L251.50,161.00 L251.00,161.50 L250.00,161.50 L249.50,162.00 L249.00,162.50 L248.00,162.50 L247.50,163.00 L247.00,163.50 L246.50,164.00 L246.00,164.50 L245.00,164.50 L244.50,165.00 L244.00,165.50 L243.50,166.00 L243.00,166.50 L242.00,166.50 L241.50,167.00 L241.00,167.50 L240.50,168.00 L240.00,168.50 L239.50,169.00 L239.00,169.50 L238.00,169.50 L237.50,170.00 L237.00,170.50 L236.50,171.00 L236.00,171.50 L235.50,172.00 L235.00,172.50 L234.50,173.00 L234.00,173.50 L233.00,173.50 L232.50,174.00 L232.00,174.50 L231.50,175.00 L231.00,175.50 L230.50,176.00 L230.00,176.50 L229.50,177.00 L229.00,177.50 L228.50,178.00 L228.00,178.50 L227.50,179.00 L227.00,179.50 L226.50,180.00 L226.00,180.50 L225.50,181.00 L225.00,181.50 L224.50,182.00 L224.00,182.50 L223.50,183.00 L223.00,183.50 L222.50,184.00 L222.00,184.50 L221.50,185.00 L221.00,185.50 L220.50,186.00 L220.00,186.50 L219.50,187.00 L219.00,187.50 L218.50,188.00 L218.00,188.50 L217.50,189.00 L217.00,189.50 L216.50,190.00 L216.00,190.50 L215.50,191.00 L215.00,191.50 L214.50,192.00 L214.00,192.50 L213.50,193.00 L213.50,194.00 L213.00,194.50 L212.50,195.00 L212.00,195.50 L211.50,196.00 L211.00,196.50 L210.50,197.00 L210.50,198.00 L210.00,198.50 L209.50,199.00 L209.00,199.50 L208.50,200.00 L208.00,200.50 L207.50,201.00 L207.50,202.00 L207.00,202.50 L206.50,203.00 L206.00,203.50 L205.50,204.00 L205.00,204.50 L204.50,205.00 L204.50,206.00 L204.00,206.50 L203.50,207.00 L203.00,207.50 L202.50,208.00 L202.50,209.00 L202.00,209.50 L201.50,210.00 L201.50,211.00 L201.00,211.50 L200.50,212.00 L200.00,212.50 L199.50,213.00 L199.50,214.00 L199.00,214.50 L198.50,215.00 L198.50,216.00 L198.00,216.50 L197.50,217.00 L197.50,218.00 L197.00,218.50 L196.50,219.00 L196.00,219.50 L195.50,220.00 L195.50,221.00 L195.00,221.50 L194.50,222.00 L194.50,223.00 L194.00,223.50 L193.50,224.00 L193.50,225.00 L193.50,226.00 L193.00,226.50 L192.50,227.00 L192.50,228.00 L192.00,228.50 L191.50,229.00 L191.50,230.00 L191.50,231.00 L191.00,231.50 L190.50,232.00 L190.50,233.00 L190.00,233.50 L189.50,234.00 L189.50,235.00 L189.50,236.00 L189.00,236.50 L188.50,237.00 L188.50,238.00 L188.50,239.00 L188.00,239.50 L187.50,240.00 L187.50,241.00 L187.50,242.00 L187.00,242.50 L186.50,243.00 L186.50,244.00 L186.50,245.00 L186.50,246.00 L186.00,246.50 L185.50,247.00 L185.50,248.00 L185.50,249.00 L185.00,249.50 L184.50,250.00 L184.50,251.00 L184.50,252.00 L184.50,253.00 L184.50,254.00 L184.00,254.50 L183.50,255.00 L183.50,256.00 L183.50,257.00 L183.50,258.00 L183.50,259.00 L183.00,259.50 L182.50,260.00 L182.50,261.00 L182.50,262.00 L182.50,263.00 L182.50,264.00 L182.50,265.00 L182.50,266.00 L182.50,267.00 L182.50,268.00 L182.00,268.50 L181.50,269.00 L181.50,270.00 L181.50,271.00 L181.50,272.00 L181.50,273.00 L181.50,274.00 L181.50,275.00 L181.50,276.00 L181.50,277.00 L181.50,278.00 L181.50,279.00 L181.50,280.00 L181.50,281.00 L181.50,282.00 L181.50,283.00 L181.50,284.00 L181.50,285.00 L181.50,286.00 L181.50,287.00 L181.50,288.00 L181.50,289.00 L181.50,290.00 L181.50,291.00 L181.50,292.00 L181.50,293.00 L182.00,293.50 L182.50,294.00 L182.50,295.00 L182.50,296.00 L182.50,297.00 L182.50,298.00 L182.50,299.00 L182.50,300.00 L182.50,301.00 L183.00,301.50 L183.50,302.00 L183.50,303.00 L183.50,304.00 L183.50,305.00 L183.50,306.00 L184.00,306.50 L184.50,307.00 L184.50,308.00 L184.50,309.00 L184.50,310.00 L184.50,311.00 L185.00,311.50 L185.50,312.00 L185.50,313.00 L185.50,314.00 L185.50,315.00 L186.00,315.50 L186.50,316.00 L186.50,317.00 L186.50,318.00 L187.00,318.50 L187.50,319.00 L187.50,320.00 L187.50,321.00 L188.00,321.50 L188.50,322.00 L188.50,323.00 L188.50,324.00 L189.00,324.50 L189.50,325.00 L189.50,326.00 L189.50,327.00 L190.00,327.50 L190.50,328.00 L190.50,329.00 L190.50,330.00 L191.00,330.50 L191.50,331.00 L191.50,332.00 L192.00,332.50 L192.50,333.00 L192.50,334.00 L192.50,335.00 L193.00,335.50 L193.50,336.00 L193.50,337.00 L194.00,337.50 L194.50,338.00 L194.50,339.00 L195.00,339.50 L195.50,340.00 L195.50,341.00 L196.00,341.50 L196.50,342.00 L197.00,342.50 L197.50,343.00 L197.50,344.00 L198.00,344.50 L198.50,345.00 L198.50,346.00 L199.00,346.50 L199.50,347.00 L199.50,348.00 L200.00,348.50 L200.50,349.00 L201.00,349.50 L201.50,350.00 L201.50,351.00 L202.00,351.50 L202.50,352.00 L203.00,352.50 L203.50,353.00 L203.50,354.00 L204.00,354.50 L204.50,355.00 L205.00,355.50 L205.50,356.00 L205.50,357.00 L206.00,357.50 L206.50,358.00 L207.00,358.50 L207.50,359.00 L208.00,359.50 L208.50,360.00 L208.50,361.00 L209.00,361.50 L209.50,362.00 L210.00,362.50 L210.50,363.00 L211.00,363.50 L211.50,364.00 L212.00,364.50 L212.50,365.00 L213.00,365.50 L213.50,366.00 L214.00,366.50 L214.50,367.00 L214.50,368.00 L215.00,368.50 L215.50,369.00 L216.00,369.50 L216.50,370.00 L217.00,370.50 L218.00,370.50 L218.50,371.00 L219.00,371.50 L219.50,372.00 L220.00,372.50 L220.50,373.00 L221.00,373.50 L221.50,374.00 L222.00,374.50 L222.50,375.00 L223.00,375.50 L223.50,376.00 L224.00,376.50 L224.50,377.00 L225.00,377.50 L225.50,378.00 L226.00,378.50 L226.50,379.00 L227.00,379.50 L227.50,380.00 L228.00,380.50 L229.00,380.50 L229.50,381.00 L230.00,381.50 L230.50,382.00 L231.00,382.50 L231.50,383.00 L232.00,383.50 L232.50,384.00 L233.00,384.50 L233.50,385.00 L234.00,385.50 L234.50,386.00 L235.00,386.50 L235.50,387.00 L236.00,387.50 L236.50,388.00 L237.00,388.50 L237.50,389.00 L238.00,389.50 L238.50,390.00 L239.00,390.50 L239.50,391.00 L240.00,391.50 L240.50,392.00 L240.50,393.00 L241.00,393.50 L241.50,394.00 L242.00,394.50 L242.50,395.00 L242.50,396.00 L243.00,396.50 L243.50,397.00 L243.50,398.00 L243.50,399.00 L244.00,399.50 L244.50,400.00 L244.50,401.00 L244.50,402.00 L244.50,403.00 L244.50,404.00 L244.50,405.00 L245.00,405.50 L245.50,406.00 L245.00,406.50 L244.50,407.00 L244.50,408.00 L244.50,409.00 L244.50,410.00 L244.50,411.00 L244.50,412.00 L244.50,413.00 L244.00,413.50 L243.50,414.00 L243.50,415.00 L243.50,416.00 L243.00,416.50 L242.50,417.00 L242.50,418.00 L242.00,418.50 L241.50,419.00 L241.00,419.50 L240.50,420.00 L240.50,421.00 L240.00,421.50 L239.50,422.00 L239.00,422.50 L238.50,423.00 L238.00,423.50 L237.50,424.00 L237.00,424.50 L236.50,425.00 L236.00,425.50 L235.50,426.00 L235.00,426.50 L234.50,427.00 L234.00,427.50 L233.50,428.00 L233.00,428.50 L232.50,429.00 L232.00,429.50 L231.50,430.00 L231.00,430.50 L230.50,431.00 L230.00,431.50 L229.50,432.00 L229.00,432.50 L228.50,433.00 L228.00,433.50 L227.50,434.00 L227.00,434.50 L226.50,435.00 L226.00,435.50 L225.50,436.00 L225.00,436.50 L224.50,437.00 L224.00,437.50 L223.50,438.00 L223.00,438.50 L222.50,439.00 L222.00,439.50 L221.50,440.00 L221.00,440.50 L220.50,441.00 L220.00,441.50 L219.50,442.00 L219.00,442.50 L218.50,443.00 L218.00,443.50 L217.50,444.00 L217.00,444.50 L216.50,445.00 L216.00,445.50 L215.50,446.00 L215.00,446.50 L214.50,447.00 L214.00,447.50 L213.50,448.00 L213.00,448.50 L212.50,449.00 L212.00,449.50 L211.50,450.00 L211.00,450.50 L210.50,451.00 L210.00,451.50 L209.50,452.00 L209.00,452.50 L208.50,453.00 L208.00,453.50 L207.50,454.00 L207.00,454.50 L206.50,455.00 L206.00,455.50 L205.50,456.00 L205.00,456.50 L204.50,457.00 L204.00,457.50 L203.50,458.00 L203.00,458.50 L202.50,459.00 L202.00,459.50 L201.50,460.00 L201.00,460.50 L200.50,461.00 L200.00,461.50 L199.50,462.00 L199.00,462.50 L198.50,463.00 L198.00,463.50 L197.50,464.00 L197.00,464.50 L196.50,465.00 L196.00,465.50 L195.50,466.00 L195.00,466.50 L194.50,467.00 L194.00,467.50 L193.00,467.50 L192.50,468.00 L192.00,468.50 L191.50,469.00 L191.00,469.50 L190.00,469.50 L189.50,470.00 L189.00,470.50 L188.00,470.50 L187.50,471.00 L187.00,471.50 L186.00,471.50 L185.00,471.50 L184.50,472.00 L184.00,472.50 Z" fill="rgb(34,37,38)" fill-rule="evenodd"/>
<path d="M340.00,362.50 L339.00,362.50 L338.00,362.50 L337.00,362.50 L336.00,362.50 L335.00,362.50 L334.50,362.00 L334.00,361.50 L333.00,361.50 L332.00,361.50 L331.00,361.50 L330.00,361.50 L329.00,361.50 L328.00,361.50 L327.00,361.50 L326.00,361.50 L325.00,361.50 L324.50,361.00 L324.00,360.50 L323.00,360.50 L322.00,360.50 L321.00,360.50 L320.50,360.00 L320.00,359.50 L319.00,359.50 L318.00,359.50 L317.00,359.50 L316.50,359.00 L316.00,358.50 L315.00,358.50 L314.00,358.50 L313.50,358.00 L313.00,357.50 L312.00,357.50 L311.50,357.00 L311.00,356.50 L310.00,356.50 L309.00,356.50 L308.50,356.00 L308.00,355.50 L307.00,355.50 L306.50,355.00 L306.00,354.50 L305.00,354.50 L304.50,354.00 L304.00,353.50 L303.50,353.00 L303.00,352.50 L302.00,352.50 L301.50,352.00 L301.00,351.50 L300.00,351.50 L299.50,351.00 L299.00,350.50 L298.50,350.00 L298.00,349.50 L297.50,349.00 L297.00,348.50 L296.00,348.50 L295.50,348.00 L295.00,347.50 L294.50,347.00 L294.00,346.50 L293.50,346.00 L293.00,345.50 L292.50,345.00 L292.00,344.50 L291.50,344.00 L291.00,343.50 L290.50,343.00 L290.00,342.50 L289.50,342.00 L289.00,341.50 L288.50,341.00 L288.00,340.50 L287.50,340.00 L287.00,339.50 L286.50,339.00 L286.00,338.50 L285.50,338.00 L285.00,337.50 L284.50,337.00 L284.00,336.50 L283.50,336.00 L283.00,335.50 L282.50,335.00 L282.50,334.00 L282.00,333.50 L281.50,333.00 L281.00,332.50 L280.50,332.00 L280.00,331.50 L279.50,331.00 L279.50,330.00 L279.00,329.50 L278.50,329.00 L278.50,328.00 L278.00,327.50 L277.50,327.00 L277.50,326.00 L277.00,325.50 L276.50,325.00 L276.50,324.00 L276.00,323.50 L275.50,323.00 L275.50,322.00 L275.00,321.50 L274.50,321.00 L274.50,320.00 L274.00,319.50 L273.50,319.00 L273.50,318.00 L273.50,317.00 L273.00,316.50 L272.50,316.00 L272.50,315.00 L272.50,314.00 L272.00,313.50 L271.50,313.00 L271.50,312.00 L271.50,311.00 L271.00,310.50 L270.50,310.00 L270.50,309.00 L270.50,308.00 L270.50,307.00 L270.50,306.00 L270.50,305.00 L270.50,304.00 L270.00,303.50 L269.50,303.00 L269.50,302.00 L269.50,301.00 L269.50,300.00 L269.50,299.00 L269.50,298.00 L269.50,297.00 L269.50,296.00 L269.50,295.00 L269.50,294.00 L269.50,293.00 L269.50,292.00 L269.50,291.00 L269.50,290.00 L269.50,289.00 L269.50,288.00 L269.50,287.00 L270.00,286.50 L270.50,286.00 L270.50,285.00 L270.50,284.00 L270.50,283.00 L270.50,282.00 L270.50,281.00 L271.00,280.50 L271.50,280.00 L271.50,279.00 L271.50,278.00 L271.50,277.00 L272.00,276.50 L272.50,276.00 L272.50,275.00 L272.50,274.00 L273.00,273.50 L273.50,273.00 L273.50,272.00 L273.50,271.00 L274.00,270.50 L274.50,270.00 L274.50,269.00 L275.00,268.50 L275.50,268.00 L275.50,267.00 L276.00,266.50 L276.50,266.00 L276.50,265.00 L277.00,264.50 L277.50,264.00 L277.50,263.00 L278.00,262.50 L278.50,262.00 L278.50,261.00 L279.00,260.50 L279.50,260.00 L280.00,259.50 L280.50,259.00 L280.50,258.00 L281.00,257.50 L281.50,257.00 L282.00,256.50 L282.50,256.00 L283.00,255.50 L283.50,255.00 L283.50,254.00 L284.00,253.50 L284.50,253.00 L285.00,252.50 L285.50,252.00 L286.00,251.50 L286.50,251.00 L287.00,250.50 L287.50,250.00 L288.00,249.50 L288.50,249.00 L289.00,248.50 L289.50,248.00 L290.00,247.50 L290.50,247.00 L291.00,246.50 L291.50,246.00 L292.00,245.50 L292.50,245.00 L293.00,244.50 L293.50,244.00 L294.00,243.50 L294.50,243.00 L295.00,242.50 L296.00,242.50 L296.50,242.00 L297.00,241.50 L297.50,241.00 L298.00,240.50 L298.50,240.00 L299.00,239.50 L300.00,239.50 L300.50,239.00 L301.00,238.50 L301.50,238.00 L302.00,237.50 L303.00,237.50 L303.50,237.00 L304.00,236.50 L305.00,236.50 L305.50,236.00 L306.00,235.50 L307.00,235.50 L307.50,235.00 L308.00,234.50 L309.00,234.50 L310.00,234.50 L310.50,234.00 L311.00,233.50 L312.00,233.50 L312.50,233.00 L313.00,232.50 L314.00,232.50 L315.00,232.50 L315.50,232.00 L316.00,231.50 L317.00,231.50 L318.00,231.50 L319.00,231.50 L319.50,231.00 L320.00,230.50 L321.00,230.50 L322.00,230.50 L323.00,230.50 L323.50,230.00 L324.00,229.50 L325.00,229.50 L326.00,229.50 L327.00,229.50 L328.00,229.50 L329.00,229.50 L330.00,229.50 L331.00,229.50 L331.50,229.00 L332.00,228.50 L333.00,228.50 L334.00,228.50 L335.00,228.50 L336.00,228.50 L337.00,228.50 L338.00,228.50 L339.00,228.50 L340.00,228.50 L340.50,229.00 L341.00,229.50 L342.00,229.50 L343.00,229.50 L344.00,229.50 L345.00,229.50 L346.00,229.50 L347.00,229.50 L348.00,229.50 L348.50,230.00 L349.00,230.50 L350.00,230.50 L351.00,230.50 L351.50,231.00 L352.00,231.50 L353.00,231.50 L354.00,231.50 L355.00,231.50 L355.50,232.00 L356.00,232.50 L357.00,232.50 L358.00,232.50 L358.50,233.00 L359.00,233.50 L360.00,233.50 L360.50,234.00 L361.00,234.50 L362.00,234.50 L362.50,235.00 L363.00,235.50 L364.00,235.50 L365.00,235.50 L365.50,236.00 L366.00,236.50 L367.00,236.50 L367.50,237.00 L368.00,237.50 L369.00,237.50 L369.50,238.00 L370.00,238.50 L370.50,239.00 L371.00,239.50 L372.00,239.50 L372.50,240.00 L373.00,240.50 L373.50,241.00 L374.00,241.50 L374.50,242.00 L375.00,242.50 L375.50,243.00 L376.00,243.50 L377.00,243.50 L377.50,244.00 L378.00,244.50 L378.50,245.00 L379.00,245.50 L379.50,246.00 L380.00,246.50 L380.50,247.00 L381.00,247.50 L381.50,248.00 L382.00,248.50 L382.50,249.00 L383.00,249.50 L383.50,250.00 L384.00,250.50 L384.50,251.00 L385.00,251.50 L385.50,252.00 L386.00,252.50 L386.50,253.00 L387.00,253.50 L387.50,254.00 L388.00,254.50 L388.50,255.00 L388.50,256.00 L389.00,256.50 L389.50,257.00 L390.00,257.50 L390.50,258.00 L390.50,259.00 L391.00,259.50 L391.50,260.00 L392.00,260.50 L392.50,261.00 L392.50,262.00 L393.00,262.50 L393.50,263.00 L394.00,263.50 L394.50,264.00 L394.50,265.00 L395.00,265.50 L395.50,266.00 L395.50,267.00 L396.00,267.50 L396.50,268.00 L396.50,269.00 L397.00,269.50 L397.50,270.00 L397.50,271.00 L398.00,271.50 L398.50,272.00 L398.50,273.00 L398.50,274.00 L399.00,274.50 L399.50,275.00 L399.50,276.00 L399.50,277.00 L400.00,277.50 L400.50,278.00 L400.50,279.00 L400.50,280.00 L400.50,281.00 L401.00,281.50 L401.50,282.00 L401.50,283.00 L401.50,284.00 L401.50,285.00 L401.50,286.00 L401.50,287.00 L401.50,288.00 L402.00,288.50 L402.50,289.00 L402.50,290.00 L402.50,291.00 L402.50,292.00 L402.50,293.00 L402.50,294.00 L402.50,295.00 L402.50,296.00 L402.50,297.00 L402.50,298.00 L402.50,299.00 L402.50,300.00 L402.50,301.00 L402.50,302.00 L402.50,303.00 L402.50,304.00 L402.50,305.00 L402.00,305.50 L401.50,306.00 L401.50,307.00 L401.50,308.00 L401.50,309.00 L401.50,310.00 L401.00,310.50 L400.50,311.00 L400.50,312.00 L400.50,313.00 L400.50,314.00 L400.00,314.50 L399.50,315.00 L399.50,316.00 L399.50,317.00 L399.00,317.50 L398.50,318.00 L398.50,319.00 L398.50,320.00 L398.00,320.50 L397.50,321.00 L397.50,322.00 L397.00,322.50 L396.50,323.00 L396.50,324.00 L396.00,324.50 L395.50,325.00 L395.50,326.00 L395.00,326.50 L394.50,327.00 L394.00,327.50 L393.50,328.00 L393.50,329.00 L393.00,329.50 L392.50,330.00 L392.50,331.00 L392.00,331.50 L391.50,332.00 L391.00,332.50 L390.50,333.00 L390.50,334.00 L390.00,334.50 L389.50,335.00 L389.00,335.50 L388.50,336.00 L388.00,336.50 L387.50,337.00 L387.50,338.00 L387.00,338.50 L386.50,339.00 L386.00,339.50 L385.50,340.00 L385.00,340.50 L384.50,341.00 L384.00,341.50 L383.50,342.00 L383.00,342.50 L382.50,343.00 L382.00,343.50 L381.50,344.00 L381.00,344.50 L380.50,345.00 L380.00,345.50 L379.50,346.00 L379.00,346.50 L378.50,347.00 L378.00,347.50 L377.00,347.50 L376.50,348.00 L376.00,348.50 L375.50,349.00 L375.00,349.50 L374.50,350.00 L374.00,350.50 L373.00,350.50 L372.50,351.00 L372.00,351.50 L371.50,352.00 L371.00,352.50 L370.00,352.50 L369.50,353.00 L369.00,353.50 L368.50,354.00 L368.00,354.50 L367.00,354.50 L366.50,355.00 L366.00,355.50 L365.00,355.50 L364.50,356.00 L364.00,356.50 L363.00,356.50 L362.50,357.00 L362.00,357.50 L361.00,357.50 L360.00,357.50 L359.50,358.00 L359.00,358.50 L358.00,358.50 L357.00,358.50 L356.50,359.00 L356.00,359.50 L355.00,359.50 L354.00,359.50 L353.50,360.00 L353.00,360.50 L352.00,360.50 L351.00,360.50 L350.00,360.50 L349.50,361.00 L349.00,361.50 L348.00,361.50 L347.00,361.50 L346.00,361.50 L345.00,361.50 L344.00,361.50 L343.00,361.50 L342.00,361.50 L341.00,361.50 L340.50,362.00 L340.00,362.50 Z" fill="rgb(123,119,91)" fill-rule="evenodd"/>
<path d="M375.00,652.50 L374.50,652.00 L374.00,651.50 L373.50,652.00 L373.00,652.50 L372.50,652.00 L372.00,651.50 L371.00,651.50 L370.00,651.50 L369.00,651.50 L368.00,651.50 L367.00,651.50 L366.00,651.50 L365.00,651.50 L364.00,651.50 L363.00,651.50 L362.00,651.50 L361.00,651.50 L360.00,651.50 L359.00,651.50 L358.00,651.50 L357.00,651.50 L356.00,651.50 L355.00,651.50 L354.00,651.50 L353.50,651.00 L353.00,650.50 L352.00,650.50 L351.00,650.50 L350.00,650.50 L349.00,650.50 L348.00,650.50 L347.00,650.50 L346.00,650.50 L345.50,650.00 L345.00,649.50 L344.00,649.50 L343.00,649.50 L342.00,649.50 L341.00,649.50 L340.00,649.50 L339.50,649.00 L339.00,648.50 L338.00,648.50 L337.00,648.50 L336.00,648.50 L335.00,648.50 L334.00,648.50 L333.50,648.00 L333.00,647.50 L332.00,647.50 L331.00,647.50 L330.00,647.50 L329.00,647.50 L328.50,647.00 L328.00,646.50 L327.00,646.50 L326.00,646.50 L325.00,646.50 L324.50,646.00 L324.00,645.50 L323.00,645.50 L322.00,645.50 L321.00,645.50 L320.50,645.00 L320.00,644.50 L319.00,644.50 L318.00,644.50 L317.00,644.50 L316.50,644.00 L316.00,643.50 L315.00,643.50 L314.00,643.50 L313.00,643.50 L312.50,643.00 L312.00,642.50 L311.00,642.50 L310.00,642.50 L309.50,642.00 L309.00,641.50 L308.00,641.50 L307.00,641.50 L306.50,641.00 L306.00,640.50 L305.00,640.50 L304.00,640.50 L303.50,640.00 L303.00,639.50 L302.00,639.50 L301.00,639.50 L300.50,639.00 L300.00,638.50 L299.00,638.50 L298.00,638.50 L297.50,638.00 L297.00,637.50 L296.00,637.50 L295.00,637.50 L294.50,637.00 L294.00,636.50 L293.00,636.50 L292.50,636.00 L292.00,635.50 L291.00,635.50 L290.00,635.50 L289.50,635.00 L289.00,634.50 L288.00,634.50 L287.50,634.00 L287.00,633.50 L286.00,633.50 L285.00,633.50 L284.50,633.00 L284.00,632.50 L283.00,632.50 L282.50,632.00 L282.00,631.50 L281.00,631.50 L280.50,631.00 L280.00,630.50 L279.00,630.50 L278.50,630.00 L278.00,629.50 L277.00,629.50 L276.00,629.50 L275.50,629.00 L275.00,628.50 L274.00,628.50 L273.50,628.00 L273.00,627.50 L272.00,627.50 L271.50,627.00 L271.00,626.50 L270.00,626.50 L269.50,626.00 L269.00,625.50 L268.50,625.00 L268.00,624.50 L267.00,624.50 L266.50,624.00 L266.00,623.50 L265.00,623.50 L264.50,623.00 L264.00,622.50 L263.00,622.50 L262.50,622.00 L262.00,621.50 L261.00,621.50 L260.50,621.00 L260.00,620.50 L259.00,620.50 L258.50,620.00 L258.00,619.50 L257.50,619.00 L257.00,618.50 L256.00,618.50 L255.50,618.00 L255.00,617.50 L254.00,617.50 L253.50,617.00 L253.00,616.50 L252.50,616.00 L252.00,615.50 L251.00,615.50 L250.50,615.00 L250.00,614.50 L249.50,614.00 L249.00,613.50 L248.50,613.00 L248.00,612.50 L247.00,612.50 L246.50,612.00 L246.00,611.50 L245.00,611.50 L244.50,611.00 L244.00,610.50 L243.50,610.00 L243.00,609.50 L242.00,609.50 L241.50,609.00 L241.00,608.50 L240.50,608.00 L240.00,607.50 L239.50,607.00 L239.00,606.50 L238.00,606.50 L237.50,606.00 L237.00,605.50 L236.50,605.00 L236.00,604.50 L235.00,604.50 L234.50,604.00 L234.00,603.50 L233.50,603.00 L233.00,602.50 L232.50,602.00 L232.00,601.50 L231.00,601.50 L230.50,601.00 L230.00,600.50 L229.50,600.00 L229.00,599.50 L228.50,599.00 L228.00,598.50 L227.50,598.00 L227.00,597.50 L226.00,597.50 L225.50,597.00 L225.00,596.50 L224.50,596.00 L224.00,595.50 L223.50,595.00 L223.00,594.50 L222.50,594.00 L222.00,593.50 L221.50,593.00 L221.00,592.50 L220.50,592.00 L220.50,591.00 L220.00,590.50 L219.50,590.00 L219.00,589.50 L218.50,589.00 L218.50,588.00 L218.00,587.50 L217.50,587.00 L217.50,586.00 L217.00,585.50 L216.50,585.00 L216.50,584.00 L216.00,583.50 L215.50,583.00 L215.50,582.00 L215.50,581.00 L215.50,580.00 L215.50,579.00 L215.00,578.50 L214.50,578.00 L214.50,577.00 L214.50,576.00 L214.50,575.00 L214.50,574.00 L215.00,573.50 L215.50,573.00 L215.50,572.00 L215.50,571.00 L215.50,570.00 L216.00,569.50 L216.50,569.00 L216.50,568.00 L217.00,567.50 L217.50,567.00 L217.50,566.00 L218.00,565.50 L218.50,565.00 L218.50,564.00 L219.00,563.50 L219.50,563.00 L220.00,562.50 L220.50,562.00 L221.00,561.50 L221.50,561.00 L221.50,560.00 L222.00,559.50 L222.50,559.00 L223.00,558.50 L223.50,558.00 L224.00,557.50 L224.50,557.00 L225.00,556.50 L225.50,556.00 L226.00,555.50 L226.50,555.00 L227.00,554.50 L227.50,554.00 L228.00,553.50 L228.50,553.00 L229.00,552.50 L229.50,552.00 L230.00,551.50 L230.50,551.00 L231.00,550.50 L231.50,550.00 L232.00,549.50 L232.50,549.00 L233.00,548.50 L233.50,548.00 L234.00,547.50 L234.50,547.00 L235.00,546.50 L235.50,546.00 L236.00,545.50 L236.50,545.00 L237.00,544.50 L237.50,544.00 L238.00,543.50 L238.50,543.00 L239.00,542.50 L239.50,542.00 L240.00,541.50 L240.50,541.00 L241.00,540.50 L241.50,540.00 L242.00,539.50 L242.50,539.00 L243.00,538.50 L243.50,538.00 L244.00,537.50 L244.50,537.00 L245.00,536.50 L245.50,536.00 L246.00,535.50 L246.50,535.00 L247.00,534.50 L247.50,534.00 L248.00,533.50 L248.50,533.00 L249.00,532.50 L249.50,532.00 L250.00,531.50 L250.50,531.00 L251.00,530.50 L251.50,530.00 L252.00,529.50 L252.50,529.00 L253.00,528.50 L253.50,528.00 L254.00,527.50 L254.50,527.00 L255.00,526.50 L255.50,526.00 L256.00,525.50 L256.50,525.00 L257.00,524.50 L257.50,524.00 L258.00,523.50 L258.50,523.00 L259.00,522.50 L259.50,522.00 L260.00,521.50 L260.50,521.00 L261.00,520.50 L261.50,520.00 L262.00,519.50 L262.50,519.00 L263.00,518.50 L263.50,518.00 L264.00,517.50 L264.50,517.00 L265.00,516.50 L265.50,516.00 L266.00,515.50 L266.50,515.00 L267.00,514.50 L267.50,514.00 L268.00,513.50 L268.50,513.00 L269.00,512.50 L270.00,512.50 L270.50,512.00 L271.00,511.50 L271.50,511.00 L272.00,510.50 L273.00,510.50 L273.50,510.00 L274.00,509.50 L275.00,509.50 L276.00,509.50 L276.50,509.00 L277.00,508.50 L278.00,508.50 L279.00,508.50 L280.00,508.50 L281.00,508.50 L282.00,508.50 L283.00,508.50 L284.00,508.50 L285.00,508.50 L286.00,508.50 L287.00,508.50 L287.50,509.00 L288.00,509.50 L289.00,509.50 L290.00,509.50 L290.50,510.00 L291.00,510.50 L292.00,510.50 L292.50,511.00 L293.00,511.50 L294.00,511.50 L294.50,512.00 L295.00,512.50 L296.00,512.50 L296.50,513.00 L297.00,513.50 L298.00,513.50 L298.50,514.00 L299.00,514.50 L299.50,515.00 L300.00,515.50 L301.00,515.50 L301.50,516.00 L302.00,516.50 L302.50,517.00 L303.00,517.50 L304.00,517.50 L304.50,518.00 L305.00,518.50 L306.00,518.50 L306.50,519.00 L307.00,519.50 L307.50,520.00 L308.00,520.50 L309.00,520.50 L309.50,521.00 L310.00,521.50 L311.00,521.50 L311.50,522.00 L312.00,522.50 L313.00,522.50 L313.50,523.00 L314.00,523.50 L314.50,524.00 L315.00,524.50 L316.00,524.50 L316.50,525.00 L317.00,525.50 L318.00,525.50 L318.50,526.00 L319.00,526.50 L320.00,526.50 L320.50,527.00 L321.00,527.50 L322.00,527.50 L323.00,527.50 L323.50,528.00 L324.00,528.50 L325.00,528.50 L325.50,529.00 L326.00,529.50 L327.00,529.50 L328.00,529.50 L328.50,530.00 L329.00,530.50 L330.00,530.50 L330.50,531.00 L331.00,531.50 L332.00,531.50 L333.00,531.50 L333.50,532.00 L334.00,532.50 L335.00,532.50 L336.00,532.50 L336.50,533.00 L337.00,533.50 L338.00,533.50 L339.00,533.50 L339.50,534.00 L340.00,534.50 L341.00,534.50 L342.00,534.50 L343.00,534.50 L343.50,535.00 L344.00,535.50 L345.00,535.50 L346.00,535.50 L347.00,535.50 L347.50,536.00 L348.00,536.50 L349.00,536.50 L350.00,536.50 L351.00,536.50 L352.00,536.50 L353.00,536.50 L353.50,537.00 L354.00,537.50 L355.00,537.50 L356.00,537.50 L357.00,537.50 L358.00,537.50 L359.00,537.50 L360.00,537.50 L360.50,538.00 L361.00,538.50 L362.00,538.50 L363.00,538.50 L364.00,538.50 L365.00,538.50 L366.00,538.50 L367.00,538.50 L368.00,538.50 L369.00,538.50 L370.00,538.50 L371.00,538.50 L372.00,538.50 L373.00,538.50 L374.00,538.50 L375.00,538.50 L376.00,538.50 L377.00,538.50 L378.00,538.50 L379.00,538.50 L380.00,538.50 L381.00,538.50 L382.00,538.50 L383.00,538.50 L384.00,538.50 L385.00,538.50 L386.00,538.50 L387.00,538.50 L388.00,538.50 L388.50,538.00 L389.00,537.50 L390.00,537.50 L391.00,537.50 L392.00,537.50 L393.00,537.50 L394.00,537.50 L395.00,537.50 L396.00,537.50 L396.50,537.00 L397.00,536.50 L398.00,536.50 L399.00,536.50 L400.00,536.50 L401.00,536.50 L401.50,536.00 L402.00,535.50 L403.00,535.50 L404.00,535.50 L405.00,535.50 L406.00,535.50 L406.50,535.00 L407.00,534.50 L408.00,534.50 L409.00,534.50 L410.00,534.50 L410.50,534.00 L411.00,533.50 L412.00,533.50 L413.00,533.50 L414.00,533.50 L414.50,533.00 L415.00,532.50 L416.00,532.50 L417.00,532.50 L417.50,532.00 L418.00,531.50 L419.00,531.50 L420.00,531.50 L420.50,531.00 L421.00,530.50 L422.00,530.50 L423.00,530.50 L423.50,530.00 L424.00,529.50 L425.00,529.50 L425.50,529.00 L426.00,528.50 L427.00,528.50 L428.00,528.50 L428.50,528.00 L429.00,527.50 L430.00,527.50 L430.50,527.00 L431.00,526.50 L432.00,526.50 L432.50,526.00 L433.00,525.50 L434.00,525.50 L434.50,525.00 L435.00,524.50 L436.00,524.50 L437.00,524.50 L437.50,524.00 L438.00,523.50 L438.50,523.00 L439.00,522.50 L440.00,522.50 L440.50,522.00 L441.00,521.50 L442.00,521.50 L442.50,521.00 L443.00,520.50 L444.00,520.50 L444.50,520.00 L445.00,519.50 L446.00,519.50 L446.50,519.00 L447.00,518.50 L447.50,518.00 L448.00,517.50 L449.00,517.50 L449.50,517.00 L450.00,516.50 L450.50,516.00 L451.00,515.50 L452.00,515.50 L452.50,515.00 L453.00,514.50 L453.50,514.00 L454.00,513.50 L454.50,513.00 L455.00,512.50 L456.00,512.50 L456.50,512.00 L457.00,511.50 L457.50,511.00 L458.00,510.50 L458.50,510.00 L459.00,509.50 L459.50,509.00 L460.00,508.50 L461.00,508.50 L461.50,508.00 L462.00,507.50 L462.50,507.00 L463.00,506.50 L463.50,506.00 L464.00,505.50 L464.50,505.00 L465.00,504.50 L465.50,504.00 L466.00,503.50 L466.50,503.00 L467.00,502.50 L467.50,502.00 L468.00,501.50 L468.50,501.00 L469.00,500.50 L469.50,500.00 L470.00,499.50 L470.50,499.00 L471.00,498.50 L471.50,498.00 L472.00,497.50 L472.50,497.00 L473.00,496.50 L473.50,496.00 L474.00,495.50 L474.50,495.00 L474.50,494.00 L475.00,493.50 L475.50,493.00 L476.00,492.50 L476.50,492.00 L477.00,491.50 L477.50,491.00 L477.50,490.00 L478.00,489.50 L478.50,489.00 L479.00,488.50 L479.50,488.00 L480.00,487.50 L480.50,487.00 L480.50,486.00 L481.00,485.50 L481.50,485.00 L482.00,484.50 L482.50,484.00 L482.50,483.00 L483.00,482.50 L483.50,482.00 L484.00,481.50 L484.50,481.00 L484.50,480.00 L485.00,479.50 L485.50,479.00 L485.50,478.00 L486.00,477.50 L486.50,477.00 L486.50,476.00 L487.00,475.50 L487.50,475.00 L487.50,474.00 L488.00,473.50 L488.50,473.00 L488.50,472.00 L489.00,471.50 L489.50,471.00 L489.50,470.00 L490.00,469.50 L490.50,469.00 L490.50,468.00 L491.00,467.50 L491.50,467.00 L491.50,466.00 L492.00,465.50 L492.50,465.00 L492.50,464.00 L492.50,463.00 L493.00,462.50 L493.50,462.00 L493.50,461.00 L494.00,460.50 L494.50,460.00 L494.50,459.00 L494.50,458.00 L495.00,457.50 L495.50,457.00 L495.50,456.00 L495.50,455.00 L496.00,454.50 L496.50,454.00 L496.50,453.00 L496.50,452.00 L496.50,451.00 L497.00,450.50 L497.50,450.00 L497.50,449.00 L497.50,448.00 L497.50,447.00 L498.00,446.50 L498.50,446.00 L498.50,445.00 L498.50,444.00 L498.50,443.00 L499.00,442.50 L499.50,442.00 L499.50,441.00 L499.50,440.00 L499.50,439.00 L499.50,438.00 L499.50,437.00 L500.00,436.50 L500.50,436.00 L500.50,435.00 L500.50,434.00 L500.50,433.00 L500.50,432.00 L500.50,431.00 L500.50,430.00 L501.00,429.50 L501.50,429.00 L501.50,428.00 L501.50,427.00 L501.50,426.00 L501.50,425.00 L501.50,424.00 L501.50,423.00 L501.50,422.00 L501.50,421.00 L501.50,420.00 L501.50,419.00 L501.50,418.00 L501.50,417.00 L501.50,416.00 L501.50,415.00 L501.50,414.00 L501.50,413.00 L501.50,412.00 L501.50,411.00 L501.50,410.00 L501.50,409.00 L501.50,408.00 L501.50,407.00 L501.50,406.00 L501.50,405.00 L501.50,404.00 L501.00,403.50 L500.50,403.00 L500.50,402.00 L500.50,401.00 L500.50,400.00 L500.50,399.00 L500.50,398.00 L500.50,397.00 L500.50,396.00 L500.00,395.50 L499.50,395.00 L499.50,394.00 L499.50,393.00 L499.50,392.00 L499.50,391.00 L499.50,390.00 L499.00,389.50 L498.50,389.00 L498.50,388.00 L498.50,387.00 L498.50,386.00 L498.00,385.50 L497.50,385.00 L497.50,384.00 L497.50,383.00 L497.50,382.00 L497.00,381.50 L496.50,381.00 L496.50,380.00 L496.50,379.00 L496.50,378.00 L496.00,377.50 L495.50,377.00 L495.50,376.00 L495.50,375.00 L495.00,374.50 L494.50,374.00 L494.50,373.00 L494.50,372.00 L494.00,371.50 L493.50,371.00 L493.50,370.00 L493.00,369.50 L492.50,369.00 L492.50,368.00 L492.50,367.00 L492.00,366.50 L491.50,366.00 L491.50,365.00 L491.00,364.50 L490.50,364.00 L490.50,363.00 L490.50,362.00 L490.00,361.50 L489.50,361.00 L489.50,360.00 L489.00,359.50 L488.50,359.00 L488.50,358.00 L488.00,357.50 L487.50,357.00 L487.50,356.00 L487.00,355.50 L486.50,355.00 L486.00,354.50 L485.50,354.00 L485.50,353.00 L485.00,352.50 L484.50,352.00 L484.50,351.00 L484.00,350.50 L483.50,350.00 L483.00,349.50 L482.50,349.00 L482.50,348.00 L482.00,347.50 L481.50,347.00 L481.00,346.50 L480.50,346.00 L480.50,345.00 L480.00,344.50 L479.50,344.00 L479.00,343.50 L478.50,343.00 L478.50,342.00 L478.00,341.50 L477.50,341.00 L477.00,340.50 L476.50,340.00 L476.00,339.50 L475.50,339.00 L475.50,338.00 L475.00,337.50 L474.50,337.00 L474.00,336.50 L473.50,336.00 L473.00,335.50 L472.50,335.00 L472.00,334.50 L471.50,334.00 L471.00,333.50 L470.50,333.00 L470.00,332.50 L469.50,332.00 L469.00,331.50 L468.50,331.00 L468.00,330.50 L467.50,330.00 L467.00,329.50 L466.50,329.00 L466.00,328.50 L465.50,328.00 L465.00,327.50 L464.50,327.00 L464.00,326.50 L463.50,326.00 L463.00,325.50 L462.50,325.00 L462.00,324.50 L461.50,324.00 L461.00,323.50 L460.50,323.00 L460.00,322.50 L459.50,322.00 L459.00,321.50 L458.00,321.50 L457.50,321.00 L457.00,320.50 L456.50,320.00 L456.00,319.50 L455.50,319.00 L455.00,318.50 L454.50,318.00 L454.00,317.50 L453.00,317.50 L452.50,317.00 L452.00,316.50 L451.50,316.00 L451.00,315.50 L450.50,315.00 L450.00,314.50 L449.50,314.00 L449.00,313.50 L448.50,313.00 L448.00,312.50 L447.50,312.00 L447.00,311.50 L446.50,311.00 L446.00,310.50 L445.50,310.00 L445.50,309.00 L445.00,308.50 L444.50,308.00 L444.50,307.00 L444.00,306.50 L443.50,306.00 L443.50,305.00 L443.00,304.50 L442.50,304.00 L442.50,303.00 L442.00,302.50 L441.50,302.00 L441.50,301.00 L441.50,300.00 L441.50,299.00 L441.50,298.00 L441.00,297.50 L440.50,297.00 L440.50,296.00 L440.50,295.00 L440.50,294.00 L441.00,293.50 L441.50,293.00 L441.50,292.00 L441.50,291.00 L441.50,290.00 L441.50,289.00 L441.50,288.00 L441.50,287.00 L442.00,286.50 L442.50,286.00 L442.50,285.00 L443.00,284.50 L443.50,284.00 L443.50,283.00 L444.00,282.50 L444.50,282.00 L444.50,281.00 L445.00,280.50 L445.50,280.00 L446.00,279.50 L446.50,279.00 L447.00,278.50 L447.50,278.00 L447.50,277.00 L448.00,276.50 L448.50,276.00 L449.00,275.50 L449.50,275.00 L450.00,274.50 L450.50,274.00 L451.00,273.50 L451.50,273.00 L452.00,272.50 L452.50,272.00 L453.00,271.50 L453.50,271.00 L454.00,270.50 L454.50,270.00 L455.00,269.50 L455.50,269.00 L456.00,268.50 L456.50,268.00 L457.00,267.50 L457.50,267.00 L458.00,266.50 L458.50,266.00 L459.00,265.50 L459.50,265.00 L460.00,264.50 L460.50,264.00 L461.00,263.50 L461.50,263.00 L462.00,262.50 L462.50,262.00 L463.00,261.50 L463.50,261.00 L464.00,260.50 L464.50,260.00 L465.00,259.50 L465.50,259.00 L466.00,258.50 L466.50,258.00 L467.00,257.50 L467.50,257.00 L468.00,256.50 L468.50,256.00 L469.00,255.50 L469.50,255.00 L470.00,254.50 L470.50,254.00 L471.00,253.50 L471.50,253.00 L472.00,252.50 L472.50,252.00 L473.00,251.50 L473.50,251.00 L474.00,250.50 L474.50,250.00 L475.00,249.50 L475.50,249.00 L476.00,248.50 L476.50,248.00 L477.00,247.50 L477.50,247.00 L478.00,246.50 L478.50,246.00 L479.00,245.50 L479.50,245.00 L480.00,244.50 L480.50,244.00 L481.00,243.50 L481.50,243.00 L482.00,242.50 L482.50,242.00 L483.00,241.50 L484.00,241.50 L484.50,241.00 L485.00,240.50 L485.50,240.00 L486.00,239.50 L486.50,239.00 L487.00,238.50 L487.50,238.00 L488.00,237.50 L489.00,237.50 L489.50,237.00 L490.00,236.50 L491.00,236.50 L491.50,236.00 L492.00,235.50 L493.00,235.50 L493.50,235.00 L494.00,234.50 L495.00,234.50 L495.50,234.00 L496.00,233.50 L497.00,233.50 L498.00,233.50 L499.00,233.50 L500.00,233.50 L501.00,233.50 L501.50,233.00 L502.00,232.50 L503.00,232.50 L504.00,232.50 L504.50,233.00 L505.00,233.50 L506.00,233.50 L507.00,233.50 L508.00,233.50 L509.00,233.50 L509.50,234.00 L510.00,234.50 L511.00,234.50 L512.00,234.50 L512.50,235.00 L513.00,235.50 L514.00,235.50 L514.50,236.00 L515.00,236.50 L516.00,236.50 L516.50,237.00 L517.00,237.50 L518.00,237.50 L518.50,238.00 L519.00,238.50 L520.00,238.50 L520.50,239.00 L521.00,239.50 L521.50,240.00 L522.00,240.50 L523.00,240.50 L523.50,241.00 L524.00,241.50 L524.50,242.00 L525.00,242.50 L526.00,242.50 L526.50,243.00 L527.00,243.50 L527.50,244.00 L528.00,244.50 L529.00,244.50 L529.50,245.00 L530.00,245.50 L530.50,246.00 L531.00,246.50 L531.50,247.00 L532.00,247.50 L532.50,248.00 L533.00,248.50 L533.50,249.00 L534.00,249.50 L535.00,249.50 L535.50,250.00 L536.00,250.50 L536.50,251.00 L537.00,251.50 L537.50,252.00 L538.00,252.50 L538.50,253.00 L539.00,253.50 L539.50,254.00 L540.00,254.50 L540.50,255.00 L541.00,255.50 L541.50,256.00 L542.00,256.50 L542.50,257.00 L543.00,257.50 L544.00,257.50 L544.50,258.00 L545.00,258.50 L545.50,259.00 L546.00,259.50 L546.50,260.00 L547.00,260.50 L547.50,261.00 L548.00,261.50 L548.50,262.00 L549.00,262.50 L549.50,263.00 L550.00,263.50 L550.50,264.00 L551.00,264.50 L551.50,265.00 L552.00,265.50 L552.50,266.00 L553.00,266.50 L553.50,267.00 L553.50,268.00 L554.00,268.50 L554.50,269.00 L555.00,269.50 L555.50,270.00 L556.00,270.50 L556.50,271.00 L557.00,271.50 L557.50,272.00 L558.00,272.50 L558.50,273.00 L559.00,273.50 L559.50,274.00 L560.00,274.50 L560.50,275.00 L560.50,276.00 L561.00,276.50 L561.50,277.00 L562.00,277.50 L562.50,278.00 L563.00,278.50 L563.50,279.00 L564.00,279.50 L564.50,280.00 L564.50,281.00 L565.00,281.50 L565.50,282.00 L566.00,282.50 L566.50,283.00 L567.00,283.50 L567.50,284.00 L567.50,285.00 L568.00,285.50 L568.50,286.00 L569.00,286.50 L569.50,287.00 L570.00,287.50 L570.50,288.00 L570.50,289.00 L571.00,289.50 L571.50,290.00 L572.00,290.50 L572.50,291.00 L572.50,292.00 L573.00,292.50 L573.50,293.00 L574.00,293.50 L574.50,294.00 L574.50,295.00 L575.00,295.50 L575.50,296.00 L576.00,296.50 L576.50,297.00 L576.50,298.00 L577.00,298.50 L577.50,299.00 L578.00,299.50 L578.50,300.00 L578.50,301.00 L579.00,301.50 L579.50,302.00 L579.50,303.00 L580.00,303.50 L580.50,304.00 L581.00,304.50 L581.50,305.00 L581.50,306.00 L582.00,306.50 L582.50,307.00 L582.50,308.00 L583.00,308.50 L583.50,309.00 L584.00,309.50 L584.50,310.00 L584.50,311.00 L585.00,311.50 L585.50,312.00 L585.50,313.00 L586.00,313.50 L586.50,314.00 L586.50,315.00 L587.00,315.50 L587.50,316.00 L587.50,317.00 L588.00,317.50 L588.50,318.00 L588.50,319.00 L589.00,319.50 L589.50,320.00 L589.50,321.00 L590.00,321.50 L590.50,322.00 L590.50,323.00 L591.00,323.50 L591.50,324.00 L591.50,325.00 L592.00,325.50 L592.50,326.00 L592.50,327.00 L592.50,328.00 L593.00,328.50 L593.50,329.00 L593.50,330.00 L594.00,330.50 L594.50,331.00 L594.50,332.00 L594.50,333.00 L595.00,333.50 L595.50,334.00 L595.50,335.00 L596.00,335.50 L596.50,336.00 L596.50,337.00 L596.50,338.00 L597.00,338.50 L597.50,339.00 L597.50,340.00 L597.50,341.00 L598.00,341.50 L598.50,342.00 L598.50,343.00 L598.50,344.00 L599.00,344.50 L599.50,345.00 L599.50,346.00 L600.00,346.50 L600.50,347.00 L600.50,348.00 L600.50,349.00 L601.00,349.50 L601.50,350.00 L601.50,351.00 L601.50,352.00 L601.50,353.00 L602.00,353.50 L602.50,354.00 L602.50,355.00 L602.50,356.00 L603.00,356.50 L603.50,357.00 L603.50,358.00 L603.50,359.00 L603.50,360.00 L604.00,360.50 L604.50,361.00 L604.50,362.00 L604.50,363.00 L604.50,364.00 L605.00,364.50 L605.50,365.00 L605.50,366.00 L605.50,367.00 L605.50,368.00 L606.00,368.50 L606.50,369.00 L606.50,370.00 L606.50,371.00 L606.50,372.00 L607.00,372.50 L607.50,373.00 L607.50,374.00 L607.50,375.00 L607.50,376.00 L607.50,377.00 L607.50,378.00 L608.00,378.50 L608.50,379.00 L608.50,380.00 L608.50,381.00 L608.50,382.00 L608.50,383.00 L608.50,384.00 L608.50,385.00 L609.00,385.50 L609.50,386.00 L609.50,387.00 L609.50,388.00 L609.50,389.00 L609.50,390.00 L609.50,391.00 L609.50,392.00 L609.50,393.00 L609.50,394.00 L609.50,395.00 L610.00,395.50 L610.50,396.00 L610.50,397.00 L610.50,398.00 L610.50,399.00 L610.50,400.00 L610.50,401.00 L610.50,402.00 L610.50,403.00 L610.50,404.00 L610.50,405.00 L610.50,406.00 L610.50,407.00 L610.50,408.00 L610.50,409.00 L610.50,410.00 L610.50,411.00 L610.50,412.00 L611.00,412.50 L611.50,413.00 L611.50,414.00 L611.50,415.00 L611.50,416.00 L611.50,417.00 L611.50,418.00 L611.50,419.00 L611.50,420.00 L611.00,420.50 L610.50,421.00 L610.50,422.00 L610.50,423.00 L610.50,424.00 L610.50,425.00 L610.50,426.00 L610.50,427.00 L610.50,428.00 L610.50,429.00 L610.50,430.00 L610.50,431.00 L610.50,432.00 L610.50,433.00 L610.50,434.00 L610.50,435.00 L610.50,436.00 L610.50,437.00 L610.50,438.00 L610.50,439.00 L610.50,440.00 L610.00,440.50 L609.50,441.00 L609.50,442.00 L609.50,443.00 L609.50,444.00 L609.50,445.00 L609.50,446.00 L609.50,447.00 L609.50,448.00 L609.50,449.00 L609.50,450.00 L609.00,450.50 L608.50,451.00 L608.50,452.00 L608.50,453.00 L608.50,454.00 L608.50,455.00 L608.00,455.50 L607.50,456.00 L607.50,457.00 L607.50,458.00 L607.50,459.00 L607.50,460.00 L607.00,460.50 L606.50,461.00 L606.50,462.00 L606.50,463.00 L606.50,464.00 L606.50,465.00 L606.50,466.00 L606.00,466.50 L605.50,467.00 L605.50,468.00 L605.50,469.00 L605.50,470.00 L605.00,470.50 L604.50,471.00 L604.50,472.00 L604.50,473.00 L604.50,474.00 L604.00,474.50 L603.50,475.00 L603.50,476.00 L603.50,477.00 L603.50,478.00 L603.00,478.50 L602.50,479.00 L602.50,480.00 L602.50,481.00 L602.50,482.00 L602.00,482.50 L601.50,483.00 L601.50,484.00 L601.50,485.00 L601.50,486.00 L601.50,487.00 L601.00,487.50 L600.50,488.00 L600.50,489.00 L600.50,490.00 L600.00,490.50 L599.50,491.00 L599.50,492.00 L599.50,493.00 L599.00,493.50 L598.50,494.00 L598.50,495.00 L598.50,496.00 L598.00,496.50 L597.50,497.00 L597.50,498.00 L597.50,499.00 L597.00,499.50 L596.50,500.00 L596.50,501.00 L596.50,502.00 L596.00,502.50 L595.50,503.00 L595.50,504.00 L595.00,504.50 L594.50,505.00 L594.50,506.00 L594.50,507.00 L594.00,507.50 L593.50,508.00 L593.50,509.00 L593.00,509.50 L592.50,510.00 L592.50,511.00 L592.00,511.50 L591.50,512.00 L591.50,513.00 L591.50,514.00 L591.00,514.50 L590.50,515.00 L590.50,516.00 L590.00,516.50 L589.50,517.00 L589.50,518.00 L589.00,518.50 L588.50,519.00 L588.50,520.00 L588.00,520.50 L587.50,521.00 L587.50,522.00 L587.00,522.50 L586.50,523.00 L586.50,524.00 L586.00,524.50 L585.50,525.00 L585.50,526.00 L585.00,526.50 L584.50,527.00 L584.50,528.00 L584.00,528.50 L583.50,529.00 L583.00,529.50 L582.50,530.00 L582.50,531.00 L582.00,531.50 L581.50,532.00 L581.50,533.00 L581.00,533.50 L580.50,534.00 L580.00,534.50 L579.50,535.00 L579.50,536.00 L579.00,536.50 L578.50,537.00 L578.50,538.00 L578.00,538.50 L577.50,539.00 L577.00,539.50 L576.50,540.00 L576.50,541.00 L576.00,541.50 L575.50,542.00 L575.00,542.50 L574.50,543.00 L574.50,544.00 L574.00,544.50 L573.50,545.00 L573.00,545.50 L572.50,546.00 L572.50,547.00 L572.00,547.50 L571.50,548.00 L571.00,548.50 L570.50,549.00 L570.50,550.00 L570.00,550.50 L569.50,551.00 L569.00,551.50 L568.50,552.00 L568.00,552.50 L567.50,553.00 L567.50,554.00 L567.00,554.50 L566.50,555.00 L566.00,555.50 L565.50,556.00 L565.00,556.50 L564.50,557.00 L564.50,558.00 L564.00,558.50 L563.50,559.00 L563.00,559.50 L562.50,560.00 L562.00,560.50 L561.50,561.00 L561.50,562.00 L561.00,562.50 L560.50,563.00 L560.00,563.50 L559.50,564.00 L559.00,564.50 L558.50,565.00 L558.00,565.50 L557.50,566.00 L557.50,567.00 L557.00,567.50 L556.50,568.00 L556.00,568.50 L555.50,569.00 L555.00,569.50 L554.50,570.00 L554.00,570.50 L553.50,571.00 L553.00,571.50 L552.50,572.00 L552.00,572.50 L551.50,573.00 L551.00,573.50 L550.50,574.00 L550.00,574.50 L549.50,575.00 L549.50,576.00 L549.00,576.50 L548.50,577.00 L548.00,577.50 L547.50,578.00 L547.00,578.50 L546.50,579.00 L546.00,579.50 L545.50,580.00 L545.00,580.50 L544.50,581.00 L544.00,581.50 L543.50,582.00 L543.00,582.50 L542.50,583.00 L542.00,583.50 L541.50,584.00 L541.00,584.50 L540.50,585.00 L540.00,585.50 L539.50,586.00 L539.00,586.50 L538.50,587.00 L538.00,587.50 L537.50,588.00 L537.00,588.50 L536.00,588.50 L535.50,589.00 L535.00,589.50 L534.50,590.00 L534.00,590.50 L533.50,591.00 L533.00,591.50 L532.50,592.00 L532.00,592.50 L531.50,593.00 L531.00,593.50 L530.50,594.00 L530.00,594.50 L529.50,595.00 L529.00,595.50 L528.00,595.50 L527.50,596.00 L527.00,596.50 L526.50,597.00 L526.00,597.50 L525.50,598.00 L525.00,598.50 L524.50,599.00 L524.00,599.50 L523.50,600.00 L523.00,600.50 L522.00,600.50 L521.50,601.00 L521.00,601.50 L520.50,602.00 L520.00,602.50 L519.50,603.00 L519.00,603.50 L518.00,603.50 L517.50,604.00 L517.00,604.50 L516.50,605.00 L516.00,605.50 L515.50,606.00 L515.00,606.50 L514.00,606.50 L513.50,607.00 L513.00,607.50 L512.50,608.00 L512.00,608.50 L511.50,609.00 L511.00,609.50 L510.00,609.50 L509.50,610.00 L509.00,610.50 L508.50,611.00 L508.00,611.50 L507.00,611.50 L506.50,612.00 L506.00,612.50 L505.50,613.00 L505.00,613.50 L504.00,613.50 L503.50,614.00 L503.00,614.50 L502.50,615.00 L502.00,615.50 L501.00,615.50 L500.50,616.00 L500.00,616.50 L499.50,617.00 L499.00,617.50 L498.00,617.50 L497.50,618.00 L497.00,618.50 L496.00,618.50 L495.50,619.00 L495.00,619.50 L494.50,620.00 L494.00,620.50 L493.00,620.50 L492.50,621.00 L492.00,621.50 L491.00,621.50 L490.50,622.00 L490.00,622.50 L489.50,623.00 L489.00,623.50 L488.00,623.50 L487.50,624.00 L487.00,624.50 L486.00,624.50 L485.50,625.00 L485.00,625.50 L484.00,625.50 L483.50,626.00 L483.00,626.50 L482.00,626.50 L481.50,627.00 L481.00,627.50 L480.00,627.50 L479.50,628.00 L479.00,628.50 L478.00,628.50 L477.50,629.00 L477.00,629.50 L476.00,629.50 L475.50,630.00 L475.00,630.50 L474.00,630.50 L473.50,631.00 L473.00,631.50 L472.00,631.50 L471.50,632.00 L471.00,632.50 L470.00,632.50 L469.00,632.50 L468.50,633.00 L468.00,633.50 L467.00,633.50 L466.50,634.00 L466.00,634.50 L465.00,634.50 L464.00,634.50 L463.50,635.00 L463.00,635.50 L462.00,635.50 L461.50,636.00 L461.00,636.50 L460.00,636.50 L459.00,636.50 L458.50,637.00 L458.00,637.50 L457.00,637.50 L456.50,638.00 L456.00,638.50 L455.00,638.50 L454.00,638.50 L453.50,639.00 L453.00,639.50 L452.00,639.50 L451.00,639.50 L450.50,640.00 L450.00,640.50 L449.00,640.50 L448.00,640.50 L447.50,641.00 L447.00,641.50 L446.00,641.50 L445.00,641.50 L444.50,642.00 L444.00,642.50 L443.00,642.50 L442.00,642.50 L441.00,642.50 L440.50,643.00 L440.00,643.50 L439.00,643.50 L438.00,643.50 L437.50,644.00 L437.00,644.50 L436.00,644.50 L435.00,644.50 L434.00,644.50 L433.50,645.00 L433.00,645.50 L432.00,645.50 L431.00,645.50 L430.00,645.50 L429.50,646.00 L429.00,646.50 L428.00,646.50 L427.00,646.50 L426.00,646.50 L425.50,647.00 L425.00,647.50 L424.00,647.50 L423.00,647.50 L422.00,647.50 L421.00,647.50 L420.00,647.50 L419.50,648.00 L419.00,648.50 L418.00,648.50 L417.00,648.50 L416.00,648.50 L415.00,648.50 L414.00,648.50 L413.50,649.00 L413.00,649.50 L412.00,649.50 L411.00,649.50 L410.00,649.50 L409.00,649.50 L408.00,649.50 L407.50,650.00 L407.00,650.50 L406.00,650.50 L405.00,650.50 L404.00,650.50 L403.00,650.50 L402.00,650.50 L401.00,650.50 L400.00,650.50 L399.00,650.50 L398.50,651.00 L398.00,651.50 L397.00,651.50 L396.00,651.50 L395.00,651.50 L394.00,651.50 L393.00,651.50 L392.00,651.50 L391.00,651.50 L390.00,651.50 L389.00,651.50 L388.00,651.50 L387.00,651.50 L386.00,651.50 L385.00,651.50 L384.00,651.50 L383.00,651.50 L382.00,651.50 L381.00,651.50 L380.00,651.50 L379.00,651.50 L378.00,651.50 L377.00,651.50 L376.00,651.50 L375.50,652.00 L375.00,652.50 Z" fill="rgb(126,122,94)" fill-rule="evenodd"/>
</svg>