<svg version="1.1" xmlns="http://www.w3.org/2000/svg" style="display: block;" viewBox="0 0 2048 2048" width="686" height="686" preserveAspectRatio="none">
<path transform="translate(0,0)" fill="rgb(36,38,38)" d="M 926.529 102.42 C 947.341 100.851 968.11 102.791 988.851 103.727 C 1146.31 110.821 1306.35 164.227 1429.61 263.802 C 1453.48 282.693 1456.58 329.688 1436.39 351.774 C 1397.54 394.28 1354.8 435.336 1315.15 477.198 C 1300.37 492.792 1276.64 512.175 1254.31 512.796 C 1231.13 513.441 1207.01 494.477 1187.88 483.693 C 1117.72 445.623 1045.69 421.013 965.521 420.992 C 856.482 421.382 751.954 464.564 674.432 541.245 C 659.068 556.664 646.199 570.804 632.425 587.484 C 504.718 742.132 513.014 984.794 664.662 1120.54 C 680.302 1134.54 696.816 1148.54 711.811 1163.5 C 737.958 1188.87 740.136 1235.77 715.042 1262.2 C 706.654 1271.04 697.922 1279.61 689.32 1288.24 L 645.37 1332.7 C 575.594 1402.94 550.689 1449.51 456.753 1369.53 C 448.375 1362.4 439.141 1354.88 430.74 1347.55 C 291.279 1225.89 206.36 1053.45 194.954 868.734 C 192.595 833.772 193.676 793.674 196.672 758.659 C 209.632 607.195 268.509 482.597 368.081 369.073 C 478.63 243.433 626.313 156.256 789.728 120.174 C 839.345 109.401 876.684 105.691 926.529 102.42 z"/>
<path transform="translate(0,0)" fill="rgb(127,124,96)" d="M 1444.67 722.187 C 1463.07 707.437 1484.64 693.932 1509.23 697.549 C 1570.44 706.549 1650.04 792.25 1686.14 838.509 C 1743.14 910.981 1784.12 994.72 1806.37 1084.2 C 1809.91 1097.89 1817.74 1132.64 1818.29 1146.46 C 1821.01 1162.23 1828.4 1241.54 1825.26 1254.18 C 1824.46 1282.87 1823.64 1311.24 1820.13 1339.75 C 1812.97 1397.87 1788.56 1495.5 1761.33 1546.22 C 1754.53 1559.83 1746.55 1576.24 1738.62 1589.07 C 1736.18 1593.15 1721 1618.9 1718.81 1621.41 C 1712.82 1630.16 1706.26 1640.24 1699.68 1648.41 C 1692.58 1659.07 1665.36 1694.98 1656.3 1703.75 C 1633.82 1729.43 1617.35 1745.36 1592.33 1768.07 C 1569.11 1790.39 1540.47 1810.33 1514.23 1828.51 C 1331.5 1955.12 1087.56 1982.8 880.525 1902.57 C 865.195 1896.63 845.793 1889.92 831.504 1881.71 C 830.28 1881.47 819.124 1876.35 817.227 1875.4 C 765.511 1849.52 711.801 1814.44 668.252 1776.56 C 654.143 1764.28 643.015 1738.78 643.279 1720.08 C 643.664 1692.85 661.781 1674.76 679.63 1656.56 L 709.733 1626.38 C 712.682 1622.4 742.467 1592.5 746.441 1589.03 C 763.186 1574.36 792.829 1538.43 810.334 1528.43 C 849.291 1506.14 879.728 1527.94 912.244 1549.07 C 944.101 1569.77 979.81 1585 1016.11 1595.72 C 1029.2 1599.58 1041.77 1601.47 1054.78 1604.75 C 1105.21 1610.3 1145.49 1612.65 1196.3 1602.65 C 1251.86 1592.39 1309.6 1569.61 1355.6 1536.43 C 1365.93 1528.97 1379.69 1516.34 1389.89 1507.77 C 1394.95 1501.67 1403.79 1493.82 1409.57 1487.29 C 1417.6 1478.23 1423.25 1470.61 1430.32 1460.93 C 1433.32 1457.49 1440.35 1446.94 1442.95 1442.85 C 1468.62 1402.38 1481.3 1364.8 1492.16 1319 C 1494.61 1301.7 1497.33 1285.31 1498.35 1267.92 C 1505 1155.09 1464.84 1040.26 1376.74 966.781 C 1354.6 948.318 1324.44 928.566 1319.52 897.315 C 1310.34 854.159 1335.93 827.798 1365.19 800.798 C 1391.23 774.145 1417.73 747.937 1444.67 722.187 z"/>
<path transform="translate(0,0)" fill="rgb(34,35,26)" d="M 831.504 1881.71 L 832.38 1880.04 C 836.318 1880.18 855.784 1888.96 860.731 1891 C 912.573 1912.41 959 1925.33 1014 1934.91 C 1181.99 1962.7 1354.31 1927.27 1497.71 1835.48 C 1519.03 1822 1540.43 1805.16 1561.39 1790.79 C 1570.75 1784.37 1580.1 1773.33 1590.56 1765.98 L 1592.33 1768.07 C 1569.11 1790.39 1540.47 1810.33 1514.23 1828.51 C 1331.5 1955.12 1087.56 1982.8 880.525 1902.57 C 865.195 1896.63 845.793 1889.92 831.504 1881.71 z"/>
<path transform="translate(0,0)" fill="rgb(34,35,26)" d="M 1319.52 897.315 L 1320.65 885.004 C 1321.37 888.222 1324.06 901.892 1324.85 904.056 C 1337.46 938.392 1367.06 951.684 1391.83 975.489 C 1449.17 1029.79 1486.51 1101.84 1497.82 1179.99 C 1503.68 1220.76 1504.17 1276.36 1495.59 1317.14 C 1495.23 1318.85 1493.5 1318.76 1492.16 1319 C 1494.61 1301.7 1497.33 1285.31 1498.35 1267.92 C 1505 1155.09 1464.84 1040.26 1376.74 966.781 C 1354.6 948.318 1324.44 928.566 1319.52 897.315 z"/>
<path transform="translate(0,0)" fill="rgb(87,86,61)" d="M 1822.1 1227.35 C 1823.33 1234.4 1821.5 1251.74 1824.27 1254.7 L 1824.81 1253.79 L 1825.26 1254.18 C 1824.46 1282.87 1823.64 1311.24 1820.13 1339.75 C 1812.97 1397.87 1788.56 1495.5 1761.33 1546.22 C 1760.6 1546.33 1759.88 1546.03 1759.16 1545.89 C 1758.26 1539.64 1765.47 1529.61 1767.73 1524 C 1798.51 1447.54 1815.69 1364.45 1821.31 1282.31 C 1822.52 1264.66 1820.44 1245.32 1822.01 1228.19 L 1822.1 1227.35 z"/>
<path transform="translate(0,0)" fill="rgb(87,86,61)" d="M 1054.78 1604.75 C 1105.21 1610.3 1145.49 1612.65 1196.3 1602.65 L 1197.34 1605.03 C 1188.56 1615.65 1070.78 1616.01 1056.1 1607.85 C 1055.14 1606.15 1055.24 1606.6 1054.78 1604.75 z"/>
<path transform="translate(0,0)" fill="rgb(87,86,61)" d="M 1444.67 722.187 L 1446.56 724.015 C 1445.36 726.903 1376.34 795.87 1368.91 801.249 C 1366.96 801.171 1367.04 801.286 1365.19 800.798 C 1391.23 774.145 1417.73 747.937 1444.67 722.187 z"/>
<path transform="translate(0,0)" fill="rgb(36,38,38)" d="M 1822.1 1227.35 C 1821.92 1208.2 1819.52 1190.22 1817.64 1171.26 C 1816.89 1163.66 1814.96 1150.7 1815.46 1143.66 L 1816.48 1142.88 L 1818.29 1146.46 C 1821.01 1162.23 1828.4 1241.54 1825.26 1254.18 L 1824.81 1253.79 L 1824.27 1254.7 C 1821.5 1251.74 1823.33 1234.4 1822.1 1227.35 z"/>
<path transform="translate(0,0)" fill="rgb(87,86,61)" d="M 1656.3 1703.75 C 1655.91 1693.94 1683.55 1666.33 1689.76 1656.11 C 1690.87 1654.29 1697.34 1645.78 1698.91 1644.71 L 1699.68 1648.41 C 1692.58 1659.07 1665.36 1694.98 1656.3 1703.75 z"/>
<path transform="translate(0,0)" fill="rgb(87,86,61)" d="M 1389.89 1507.77 C 1394.95 1501.67 1403.79 1493.82 1409.57 1487.29 C 1417.6 1478.23 1423.25 1470.61 1430.32 1460.93 C 1431.23 1464.52 1431.66 1465.08 1429.33 1468.5 C 1423.16 1477.57 1400.27 1507.33 1389.89 1507.77 z"/>
<path transform="translate(0,0)" fill="rgb(87,86,61)" d="M 709.733 1626.38 C 710.17 1629.32 710.793 1629.26 708.802 1631.65 C 700.751 1641.3 691.617 1650.89 681.861 1658.7 L 680.729 1658.78 L 679.63 1656.56 L 709.733 1626.38 z"/>
<path transform="translate(0,0)" fill="rgb(34,35,26)" d="M 1718.81 1621.41 L 1714.93 1622.37 C 1715.88 1618.86 1735.35 1586.73 1737.91 1585.09 L 1738.62 1589.07 C 1736.18 1593.15 1721 1618.9 1718.81 1621.41 z"/>
<path transform="translate(0,0)" fill="rgb(127,124,96)" d="M 968.748 687.738 C 999.402 683.269 1022.91 682.937 1053.21 691.774 C 1127.9 708.64 1183.3 774.93 1199.66 847.861 C 1205.93 891.944 1204.29 927.822 1184.43 968.831 C 1182.77 971.898 1174.41 986.963 1172.71 988.884 C 1166.1 1000.88 1146.09 1025.72 1134.97 1033.56 C 1111.2 1054.82 1092.54 1064.02 1062.58 1074.62 C 1015.64 1088.66 960.338 1083.21 916.811 1060.85 C 892.881 1050.07 852.236 1015.46 839.501 991.942 C 838.671 990.935 837.996 990.016 837.271 988.916 C 807.385 943.586 800.489 893.203 810.199 840.799 C 822.154 790.265 848.896 750.165 891.098 719.604 C 915.215 702.139 940.474 694.732 968.748 687.738 z"/>
<path transform="translate(0,0)" fill="rgb(87,86,61)" d="M 839.501 991.942 C 838.671 990.935 837.996 990.016 837.271 988.916 C 807.385 943.586 800.489 893.203 810.199 840.799 C 811.049 845.733 812.193 849.538 811.749 854.534 C 809.008 885.366 810.567 916.825 820.659 946.312 C 825.688 961.007 834.305 974.702 840.158 989.016 C 839.939 989.991 839.72 990.967 839.501 991.942 z"/>
<path transform="translate(0,0)" fill="rgb(34,35,26)" d="M 916.811 1060.85 C 917.759 1060.47 918.707 1060.08 919.654 1059.7 C 967.553 1080.14 1010.97 1081.86 1061.51 1073.34 C 1061.87 1073.77 1062.23 1074.19 1062.58 1074.62 C 1015.64 1088.66 960.338 1083.21 916.811 1060.85 z"/>
<path transform="translate(0,0)" fill="rgb(36,38,38)" d="M 1199.66 847.861 C 1205.93 891.944 1204.29 927.822 1184.43 968.831 L 1180.21 972.455 L 1179.32 972.062 C 1197.72 929.285 1203.4 898.795 1197.33 852.431 C 1196.98 849.773 1198.04 849.36 1199.66 847.861 z"/>
<path transform="translate(0,0)" fill="rgb(87,86,61)" d="M 968.748 687.738 C 999.402 683.269 1022.91 682.937 1053.21 691.774 C 1039.56 694.128 1019.76 689.881 1005.31 689.445 C 994.015 689.104 979.378 690.081 968.748 687.738 z"/>
<path transform="translate(0,0)" fill="rgb(87,86,61)" d="M 1134.97 1033.56 C 1132.36 1034.92 1130.13 1036.58 1127.38 1036.23 C 1142.26 1024.5 1161.98 996.047 1172.71 988.884 C 1166.1 1000.88 1146.09 1025.72 1134.97 1033.56 z"/>
</svg>